<mxfile host="65bd71144e" scale="1" border="20">
    <diagram id="3mV_5dCyKvdLCJNA6HSD" name="Page-1">
        <mxGraphModel dx="2478" dy="1215" grid="1" gridSize="10" guides="1" tooltips="1" connect="1" arrows="1" fold="1" page="1" pageScale="1" pageWidth="850" pageHeight="1100" background="#FFFFFF" math="0" shadow="0">
            <root>
                <mxCell id="0"/>
                <mxCell id="1" parent="0"/>
                <mxCell id="296" value="Availability Zone A" style="fillColor=none;strokeColor=#147EBA;dashed=1;verticalAlign=top;fontStyle=0;fontColor=#147EBA;fontSize=16;" vertex="1" parent="1">
                    <mxGeometry x="1471" y="1464" width="270" height="500" as="geometry"/>
                </mxCell>
                <mxCell id="154" value="             Transit Gateway" style="fillColor=none;strokeColor=#9933FF;verticalAlign=top;fontStyle=1;fontColor=#9933FF;fontSize=20;strokeWidth=3;align=left;" vertex="1" parent="1">
                    <mxGeometry x="10" y="1260" width="1110" height="850" as="geometry"/>
                </mxCell>
                <mxCell id="85" value="Availability Zone C" style="fillColor=none;strokeColor=#147EBA;dashed=1;verticalAlign=top;fontStyle=0;fontColor=#147EBA;fontSize=16;" vertex="1" parent="1">
                    <mxGeometry x="1760" y="440" width="270" height="740" as="geometry"/>
                </mxCell>
                <mxCell id="84" value="Availability Zone A" style="fillColor=none;strokeColor=#147EBA;dashed=1;verticalAlign=top;fontStyle=0;fontColor=#147EBA;fontSize=16;" vertex="1" parent="1">
                    <mxGeometry x="1470" y="440" width="270" height="740" as="geometry"/>
                </mxCell>
                <mxCell id="4" value="Availability Zone C" style="fillColor=none;strokeColor=#147EBA;dashed=1;verticalAlign=top;fontStyle=0;fontColor=#147EBA;fontSize=16;" vertex="1" parent="1">
                    <mxGeometry x="590" y="510" width="270" height="670" as="geometry"/>
                </mxCell>
                <mxCell id="3" value="Availability Zone A" style="fillColor=none;strokeColor=#147EBA;dashed=1;verticalAlign=top;fontStyle=0;fontColor=#147EBA;fontSize=16;" vertex="1" parent="1">
                    <mxGeometry x="300" y="510" width="270" height="670" as="geometry"/>
                </mxCell>
                <mxCell id="55" style="edgeStyle=orthogonalEdgeStyle;html=1;strokeColor=#9933FF;strokeWidth=4;fontSize=18;fontColor=#009900;sourcePerimeterSpacing=15;targetPerimeterSpacing=15;endSize=10;startSize=10;" edge="1" parent="1" source="2" target="11">
                    <mxGeometry relative="1" as="geometry"/>
                </mxCell>
                <mxCell id="92" style="edgeStyle=orthogonalEdgeStyle;html=1;strokeColor=#9933FF;strokeWidth=4;fontSize=16;fontColor=#FFFFFF;startArrow=classic;startFill=1;endArrow=none;endFill=0;sourcePerimeterSpacing=15;targetPerimeterSpacing=15;endSize=10;startSize=10;" edge="1" parent="1" source="2" target="87">
                    <mxGeometry relative="1" as="geometry"/>
                </mxCell>
                <mxCell id="2" value="Internet" style="ellipse;shape=cloud;whiteSpace=wrap;html=1;fontSize=21;" vertex="1" parent="1">
                    <mxGeometry x="1190" y="180" width="220" height="90" as="geometry"/>
                </mxCell>
                <mxCell id="5" value="Public subnet (10.0.0.0/24)" style="points=[[0,0],[0.25,0],[0.5,0],[0.75,0],[1,0],[1,0.25],[1,0.5],[1,0.75],[1,1],[0.75,1],[0.5,1],[0.25,1],[0,1],[0,0.75],[0,0.5],[0,0.25]];outlineConnect=0;gradientColor=none;html=1;whiteSpace=wrap;fontSize=16;fontStyle=0;container=1;pointerEvents=0;collapsible=0;recursiveResize=0;shape=mxgraph.aws4.group;grIcon=mxgraph.aws4.group_security_group;grStroke=0;strokeColor=#248814;fillColor=#E9F3E6;verticalAlign=top;align=left;spacingLeft=30;fontColor=#248814;dashed=0;" vertex="1" parent="1">
                    <mxGeometry x="319" y="590" width="240" height="200" as="geometry"/>
                </mxCell>
                <mxCell id="6" value="Public subnet (10.1.0.0/24)" style="points=[[0,0],[0.25,0],[0.5,0],[0.75,0],[1,0],[1,0.25],[1,0.5],[1,0.75],[1,1],[0.75,1],[0.5,1],[0.25,1],[0,1],[0,0.75],[0,0.5],[0,0.25]];outlineConnect=0;gradientColor=none;html=1;whiteSpace=wrap;fontSize=16;fontStyle=0;container=1;pointerEvents=0;collapsible=0;recursiveResize=0;shape=mxgraph.aws4.group;grIcon=mxgraph.aws4.group_security_group;grStroke=0;strokeColor=#248814;fillColor=#E9F3E6;verticalAlign=top;align=left;spacingLeft=30;fontColor=#248814;dashed=0;" vertex="1" parent="1">
                    <mxGeometry x="599" y="590" width="240" height="200" as="geometry"/>
                </mxCell>
                <mxCell id="9" value="TGW subnet&amp;nbsp;(10.5.0.0/28)" style="points=[[0,0],[0.25,0],[0.5,0],[0.75,0],[1,0],[1,0.25],[1,0.5],[1,0.75],[1,1],[0.75,1],[0.5,1],[0.25,1],[0,1],[0,0.75],[0,0.5],[0,0.25]];outlineConnect=0;gradientColor=none;html=1;whiteSpace=wrap;fontSize=16;fontStyle=0;container=1;pointerEvents=0;collapsible=0;recursiveResize=0;shape=mxgraph.aws4.group;grIcon=mxgraph.aws4.group_security_group;grStroke=0;strokeColor=#147EBA;fillColor=#E6F2F8;verticalAlign=top;align=left;spacingLeft=30;fontColor=#147EBA;dashed=0;" vertex="1" parent="1">
                    <mxGeometry x="319" y="880" width="240" height="200" as="geometry"/>
                </mxCell>
                <mxCell id="14" value="Transit Gateway ENI" style="sketch=0;outlineConnect=0;fontColor=#232F3E;gradientColor=none;fillColor=#4D27AA;strokeColor=none;dashed=0;verticalLabelPosition=bottom;verticalAlign=top;align=center;html=1;fontSize=16;fontStyle=1;aspect=fixed;pointerEvents=1;shape=mxgraph.aws4.elastic_network_interface;" vertex="1" parent="9">
                    <mxGeometry x="82" y="60" width="78" height="78" as="geometry"/>
                </mxCell>
                <mxCell id="10" value="TGW subnet&amp;nbsp;(10.5.0.16/28)" style="points=[[0,0],[0.25,0],[0.5,0],[0.75,0],[1,0],[1,0.25],[1,0.5],[1,0.75],[1,1],[0.75,1],[0.5,1],[0.25,1],[0,1],[0,0.75],[0,0.5],[0,0.25]];outlineConnect=0;gradientColor=none;html=1;whiteSpace=wrap;fontSize=16;fontStyle=0;container=1;pointerEvents=0;collapsible=0;recursiveResize=0;shape=mxgraph.aws4.group;grIcon=mxgraph.aws4.group_security_group;grStroke=0;strokeColor=#147EBA;fillColor=#E6F2F8;verticalAlign=top;align=left;spacingLeft=30;fontColor=#147EBA;dashed=0;" vertex="1" parent="1">
                    <mxGeometry x="599" y="880" width="240" height="200" as="geometry"/>
                </mxCell>
                <mxCell id="13" value="Transit Gateway ENI" style="sketch=0;outlineConnect=0;fontColor=#232F3E;gradientColor=none;fillColor=#4D27AA;strokeColor=none;dashed=0;verticalLabelPosition=bottom;verticalAlign=top;align=center;html=1;fontSize=16;fontStyle=1;aspect=fixed;pointerEvents=1;shape=mxgraph.aws4.elastic_network_interface;" vertex="1" parent="10">
                    <mxGeometry x="81" y="60" width="78" height="78" as="geometry"/>
                </mxCell>
                <mxCell id="15" style="edgeStyle=orthogonalEdgeStyle;html=1;fontSize=16;strokeWidth=4;strokeColor=#9933FF;targetPerimeterSpacing=15;sourcePerimeterSpacing=35;endSize=10;startSize=10;" edge="1" parent="1" source="12" target="14">
                    <mxGeometry relative="1" as="geometry"/>
                </mxCell>
                <mxCell id="30" value="Central Ingress Public Route Table" style="shape=table;startSize=30;container=1;collapsible=0;childLayout=tableLayout;fontSize=16;fillColor=#9933FF;strokeColor=#000000;fontColor=#FFFFFF;" vertex="1" parent="1">
                    <mxGeometry x="-40" y="590" width="290" height="190" as="geometry"/>
                </mxCell>
                <mxCell id="205" style="shape=tableRow;horizontal=0;startSize=0;swimlaneHead=0;swimlaneBody=0;top=0;left=0;bottom=0;right=0;collapsible=0;dropTarget=0;fillColor=none;points=[[0,0.5],[1,0.5]];portConstraint=eastwest;fontSize=18;" vertex="1" parent="30">
                    <mxGeometry y="30" width="290" height="40" as="geometry"/>
                </mxCell>
                <mxCell id="206" value="Destination" style="shape=partialRectangle;html=1;whiteSpace=wrap;connectable=0;overflow=hidden;fillColor=none;top=0;left=0;bottom=0;right=0;pointerEvents=1;fontSize=18;fontStyle=3" vertex="1" parent="205">
                    <mxGeometry width="145" height="40" as="geometry">
                        <mxRectangle width="145" height="40" as="alternateBounds"/>
                    </mxGeometry>
                </mxCell>
                <mxCell id="207" value="Target" style="shape=partialRectangle;html=1;whiteSpace=wrap;connectable=0;overflow=hidden;fillColor=none;top=0;left=0;bottom=0;right=0;pointerEvents=1;fontSize=18;fontStyle=3" vertex="1" parent="205">
                    <mxGeometry x="145" width="145" height="40" as="geometry">
                        <mxRectangle width="145" height="40" as="alternateBounds"/>
                    </mxGeometry>
                </mxCell>
                <mxCell id="31" value="" style="shape=tableRow;horizontal=0;startSize=0;swimlaneHead=0;swimlaneBody=0;top=0;left=0;bottom=0;right=0;collapsible=0;dropTarget=0;fillColor=none;points=[[0,0.5],[1,0.5]];portConstraint=eastwest;fontSize=18;" vertex="1" parent="30">
                    <mxGeometry y="70" width="290" height="40" as="geometry"/>
                </mxCell>
                <mxCell id="32" value="0.0.0.0/0" style="shape=partialRectangle;html=1;whiteSpace=wrap;connectable=0;overflow=hidden;fillColor=none;top=0;left=0;bottom=0;right=0;pointerEvents=1;fontSize=18;" vertex="1" parent="31">
                    <mxGeometry width="145" height="40" as="geometry">
                        <mxRectangle width="145" height="40" as="alternateBounds"/>
                    </mxGeometry>
                </mxCell>
                <mxCell id="33" value="igw-id" style="shape=partialRectangle;html=1;whiteSpace=wrap;connectable=0;overflow=hidden;fillColor=none;top=0;left=0;bottom=0;right=0;pointerEvents=1;fontSize=18;" vertex="1" parent="31">
                    <mxGeometry x="145" width="145" height="40" as="geometry">
                        <mxRectangle width="145" height="40" as="alternateBounds"/>
                    </mxGeometry>
                </mxCell>
                <mxCell id="34" value="" style="shape=tableRow;horizontal=0;startSize=0;swimlaneHead=0;swimlaneBody=0;top=0;left=0;bottom=0;right=0;collapsible=0;dropTarget=0;fillColor=none;points=[[0,0.5],[1,0.5]];portConstraint=eastwest;fontSize=18;" vertex="1" parent="30">
                    <mxGeometry y="110" width="290" height="40" as="geometry"/>
                </mxCell>
                <mxCell id="35" value="10.0.0.0/8" style="shape=partialRectangle;html=1;whiteSpace=wrap;connectable=0;overflow=hidden;fillColor=none;top=0;left=0;bottom=0;right=0;pointerEvents=1;fontSize=18;" vertex="1" parent="34">
                    <mxGeometry width="145" height="40" as="geometry">
                        <mxRectangle width="145" height="40" as="alternateBounds"/>
                    </mxGeometry>
                </mxCell>
                <mxCell id="36" value="tgw-id" style="shape=partialRectangle;html=1;whiteSpace=wrap;connectable=0;overflow=hidden;fillColor=none;top=0;left=0;bottom=0;right=0;pointerEvents=1;fontSize=18;" vertex="1" parent="34">
                    <mxGeometry x="145" width="145" height="40" as="geometry">
                        <mxRectangle width="145" height="40" as="alternateBounds"/>
                    </mxGeometry>
                </mxCell>
                <mxCell id="37" value="" style="shape=tableRow;horizontal=0;startSize=0;swimlaneHead=0;swimlaneBody=0;top=0;left=0;bottom=0;right=0;collapsible=0;dropTarget=0;fillColor=none;points=[[0,0.5],[1,0.5]];portConstraint=eastwest;fontSize=18;" vertex="1" parent="30">
                    <mxGeometry y="150" width="290" height="40" as="geometry"/>
                </mxCell>
                <mxCell id="38" value="10.0.0.0/16" style="shape=partialRectangle;html=1;whiteSpace=wrap;connectable=0;overflow=hidden;fillColor=none;top=0;left=0;bottom=0;right=0;pointerEvents=1;fontSize=18;" vertex="1" parent="37">
                    <mxGeometry width="145" height="40" as="geometry">
                        <mxRectangle width="145" height="40" as="alternateBounds"/>
                    </mxGeometry>
                </mxCell>
                <mxCell id="39" value="local" style="shape=partialRectangle;html=1;whiteSpace=wrap;connectable=0;overflow=hidden;fillColor=none;top=0;left=0;bottom=0;right=0;pointerEvents=1;fontSize=18;" vertex="1" parent="37">
                    <mxGeometry x="145" width="145" height="40" as="geometry">
                        <mxRectangle width="145" height="40" as="alternateBounds"/>
                    </mxGeometry>
                </mxCell>
                <mxCell id="50" value="Central Ingress VPC (10.0.0.0/16, 10.5.0.0/27)" style="points=[[0,0],[0.25,0],[0.5,0],[0.75,0],[1,0],[1,0.25],[1,0.5],[1,0.75],[1,1],[0.75,1],[0.5,1],[0.25,1],[0,1],[0,0.75],[0,0.5],[0,0.25]];outlineConnect=0;gradientColor=none;html=1;whiteSpace=wrap;fontSize=20;fontStyle=1;container=1;pointerEvents=0;collapsible=0;recursiveResize=0;shape=mxgraph.aws4.group;grIcon=mxgraph.aws4.group_vpc;strokeColor=#248814;fillColor=none;verticalAlign=top;align=left;spacingLeft=30;fontColor=#009900;dashed=0;strokeWidth=2;" vertex="1" parent="1">
                    <mxGeometry x="280" y="340" width="600" height="860" as="geometry"/>
                </mxCell>
                <mxCell id="511" style="edgeStyle=orthogonalEdgeStyle;html=1;strokeColor=#9933FF;strokeWidth=4;fontSize=16;fontColor=#000000;startArrow=none;startFill=0;endArrow=classic;endFill=1;sourcePerimeterSpacing=15;targetPerimeterSpacing=15;endSize=10;startSize=10;" edge="1" parent="50" source="11" target="509">
                    <mxGeometry relative="1" as="geometry">
                        <Array as="points">
                            <mxPoint x="519" y="120"/>
                            <mxPoint x="439" y="120"/>
                        </Array>
                    </mxGeometry>
                </mxCell>
                <mxCell id="11" value="Internet Gateway" style="sketch=0;outlineConnect=0;fontColor=#232F3E;gradientColor=none;fillColor=#4D27AA;strokeColor=none;dashed=0;verticalLabelPosition=top;verticalAlign=bottom;align=right;html=1;fontSize=18;fontStyle=1;aspect=fixed;pointerEvents=1;shape=mxgraph.aws4.internet_gateway;labelPosition=left;" vertex="1" parent="50">
                    <mxGeometry x="480" y="-40" width="78" height="78" as="geometry"/>
                </mxCell>
                <mxCell id="12" value="Application Load Balancer" style="sketch=0;outlineConnect=0;fontColor=#232F3E;gradientColor=none;fillColor=#4D27AA;strokeColor=none;dashed=0;verticalLabelPosition=bottom;verticalAlign=top;align=center;html=1;fontSize=16;fontStyle=1;aspect=fixed;pointerEvents=1;shape=mxgraph.aws4.application_load_balancer;" vertex="1" parent="50">
                    <mxGeometry x="121" y="310" width="78" height="78" as="geometry"/>
                </mxCell>
                <mxCell id="54" style="edgeStyle=orthogonalEdgeStyle;html=1;strokeColor=#9933FF;strokeWidth=4;fontSize=18;fontColor=#009900;sourcePerimeterSpacing=15;targetPerimeterSpacing=15;endSize=10;startSize=10;" edge="1" parent="50" source="11" target="12">
                    <mxGeometry relative="1" as="geometry">
                        <Array as="points">
                            <mxPoint x="519" y="120"/>
                            <mxPoint x="159" y="120"/>
                        </Array>
                    </mxGeometry>
                </mxCell>
                <mxCell id="509" value="Application Load Balancer" style="sketch=0;outlineConnect=0;fontColor=#232F3E;gradientColor=none;fillColor=#4D27AA;strokeColor=none;dashed=0;verticalLabelPosition=bottom;verticalAlign=top;align=center;html=1;fontSize=16;fontStyle=1;aspect=fixed;pointerEvents=1;shape=mxgraph.aws4.application_load_balancer;" vertex="1" parent="50">
                    <mxGeometry x="400" y="310" width="78" height="78" as="geometry"/>
                </mxCell>
                <mxCell id="56" value="Public subnet (10.1.0.0/24)" style="points=[[0,0],[0.25,0],[0.5,0],[0.75,0],[1,0],[1,0.25],[1,0.5],[1,0.75],[1,1],[0.75,1],[0.5,1],[0.25,1],[0,1],[0,0.75],[0,0.5],[0,0.25]];outlineConnect=0;gradientColor=none;html=1;whiteSpace=wrap;fontSize=16;fontStyle=0;container=1;pointerEvents=0;collapsible=0;recursiveResize=0;shape=mxgraph.aws4.group;grIcon=mxgraph.aws4.group_security_group;grStroke=0;strokeColor=#248814;fillColor=#E9F3E6;verticalAlign=top;align=left;spacingLeft=30;fontColor=#248814;dashed=0;" vertex="1" parent="1">
                    <mxGeometry x="1490" y="480" width="240" height="200" as="geometry"/>
                </mxCell>
                <mxCell id="80" value="NAT Gateway" style="sketch=0;outlineConnect=0;fontColor=#232F3E;gradientColor=none;fillColor=#4D27AA;strokeColor=none;dashed=0;verticalLabelPosition=bottom;verticalAlign=top;align=center;html=1;fontSize=16;fontStyle=1;aspect=fixed;pointerEvents=1;shape=mxgraph.aws4.nat_gateway;" vertex="1" parent="56">
                    <mxGeometry x="81" y="70" width="78" height="78" as="geometry"/>
                </mxCell>
                <mxCell id="57" value="Public subnet (10.1.1.0/24)" style="points=[[0,0],[0.25,0],[0.5,0],[0.75,0],[1,0],[1,0.25],[1,0.5],[1,0.75],[1,1],[0.75,1],[0.5,1],[0.25,1],[0,1],[0,0.75],[0,0.5],[0,0.25]];outlineConnect=0;gradientColor=none;html=1;whiteSpace=wrap;fontSize=16;fontStyle=0;container=1;pointerEvents=0;collapsible=0;recursiveResize=0;shape=mxgraph.aws4.group;grIcon=mxgraph.aws4.group_security_group;grStroke=0;strokeColor=#248814;fillColor=#E9F3E6;verticalAlign=top;align=left;spacingLeft=30;fontColor=#248814;dashed=0;" vertex="1" parent="1">
                    <mxGeometry x="1770" y="480" width="240" height="200" as="geometry"/>
                </mxCell>
                <mxCell id="82" value="NAT Gateway" style="sketch=0;outlineConnect=0;fontColor=#232F3E;gradientColor=none;fillColor=#4D27AA;strokeColor=none;dashed=0;verticalLabelPosition=bottom;verticalAlign=top;align=center;html=1;fontSize=16;fontStyle=1;aspect=fixed;pointerEvents=1;shape=mxgraph.aws4.nat_gateway;" vertex="1" parent="57">
                    <mxGeometry x="81" y="70" width="78" height="78" as="geometry"/>
                </mxCell>
                <mxCell id="58" value="Firewall subnet&amp;nbsp;(10.1.2.0/24)" style="points=[[0,0],[0.25,0],[0.5,0],[0.75,0],[1,0],[1,0.25],[1,0.5],[1,0.75],[1,1],[0.75,1],[0.5,1],[0.25,1],[0,1],[0,0.75],[0,0.5],[0,0.25]];outlineConnect=0;gradientColor=none;html=1;whiteSpace=wrap;fontSize=16;fontStyle=0;container=1;pointerEvents=0;collapsible=0;recursiveResize=0;shape=mxgraph.aws4.group;grIcon=mxgraph.aws4.group_security_group;grStroke=0;strokeColor=#147EBA;fillColor=#E6F2F8;verticalAlign=top;align=left;spacingLeft=30;fontColor=#147EBA;dashed=0;" vertex="1" parent="1">
                    <mxGeometry x="1490" y="720" width="240" height="200" as="geometry"/>
                </mxCell>
                <mxCell id="75" value="Network Firewall" style="sketch=0;outlineConnect=0;fontColor=#232F3E;gradientColor=none;fillColor=#BF0816;strokeColor=none;dashed=0;verticalLabelPosition=bottom;verticalAlign=top;align=center;html=1;fontSize=16;fontStyle=1;aspect=fixed;pointerEvents=1;shape=mxgraph.aws4.network_firewall_endpoints;" vertex="1" parent="58">
                    <mxGeometry x="82" y="66" width="78" height="78" as="geometry"/>
                </mxCell>
                <mxCell id="60" value="Firewall subnet&amp;nbsp;(10.1.3.0/24)" style="points=[[0,0],[0.25,0],[0.5,0],[0.75,0],[1,0],[1,0.25],[1,0.5],[1,0.75],[1,1],[0.75,1],[0.5,1],[0.25,1],[0,1],[0,0.75],[0,0.5],[0,0.25]];outlineConnect=0;gradientColor=none;html=1;whiteSpace=wrap;fontSize=16;fontStyle=0;container=1;pointerEvents=0;collapsible=0;recursiveResize=0;shape=mxgraph.aws4.group;grIcon=mxgraph.aws4.group_security_group;grStroke=0;strokeColor=#147EBA;fillColor=#E6F2F8;verticalAlign=top;align=left;spacingLeft=30;fontColor=#147EBA;dashed=0;" vertex="1" parent="1">
                    <mxGeometry x="1770" y="720" width="240" height="200" as="geometry"/>
                </mxCell>
                <mxCell id="76" value="Network Firewall" style="sketch=0;outlineConnect=0;fontColor=#232F3E;gradientColor=none;fillColor=#BF0816;strokeColor=none;dashed=0;verticalLabelPosition=bottom;verticalAlign=top;align=center;html=1;fontSize=16;fontStyle=1;aspect=fixed;pointerEvents=1;shape=mxgraph.aws4.network_firewall_endpoints;" vertex="1" parent="60">
                    <mxGeometry x="82" y="66" width="78" height="78" as="geometry"/>
                </mxCell>
                <mxCell id="63" value="TGW subnet&amp;nbsp;(10.5.0.32/28)" style="points=[[0,0],[0.25,0],[0.5,0],[0.75,0],[1,0],[1,0.25],[1,0.5],[1,0.75],[1,1],[0.75,1],[0.5,1],[0.25,1],[0,1],[0,0.75],[0,0.5],[0,0.25]];outlineConnect=0;gradientColor=none;html=1;whiteSpace=wrap;fontSize=16;fontStyle=0;container=1;pointerEvents=0;collapsible=0;recursiveResize=0;shape=mxgraph.aws4.group;grIcon=mxgraph.aws4.group_security_group;grStroke=0;strokeColor=#147EBA;fillColor=#E6F2F8;verticalAlign=top;align=left;spacingLeft=30;fontColor=#147EBA;dashed=0;" vertex="1" parent="1">
                    <mxGeometry x="1490" y="960" width="240" height="200" as="geometry"/>
                </mxCell>
                <mxCell id="64" value="Transit Gateway ENI" style="sketch=0;outlineConnect=0;fontColor=#232F3E;gradientColor=none;fillColor=#4D27AA;strokeColor=none;dashed=0;verticalLabelPosition=bottom;verticalAlign=top;align=center;html=1;fontSize=16;fontStyle=1;aspect=fixed;pointerEvents=1;shape=mxgraph.aws4.elastic_network_interface;" vertex="1" parent="63">
                    <mxGeometry x="82" y="60" width="78" height="78" as="geometry"/>
                </mxCell>
                <mxCell id="65" value="TGW subnet&amp;nbsp;(10.5.0.48/28)" style="points=[[0,0],[0.25,0],[0.5,0],[0.75,0],[1,0],[1,0.25],[1,0.5],[1,0.75],[1,1],[0.75,1],[0.5,1],[0.25,1],[0,1],[0,0.75],[0,0.5],[0,0.25]];outlineConnect=0;gradientColor=none;html=1;whiteSpace=wrap;fontSize=16;fontStyle=0;container=1;pointerEvents=0;collapsible=0;recursiveResize=0;shape=mxgraph.aws4.group;grIcon=mxgraph.aws4.group_security_group;grStroke=0;strokeColor=#147EBA;fillColor=#E6F2F8;verticalAlign=top;align=left;spacingLeft=30;fontColor=#147EBA;dashed=0;" vertex="1" parent="1">
                    <mxGeometry x="1770" y="960" width="240" height="200" as="geometry"/>
                </mxCell>
                <mxCell id="66" value="Transit Gateway ENI" style="sketch=0;outlineConnect=0;fontColor=#232F3E;gradientColor=none;fillColor=#4D27AA;strokeColor=none;dashed=0;verticalLabelPosition=bottom;verticalAlign=top;align=center;html=1;fontSize=16;fontStyle=1;aspect=fixed;pointerEvents=1;shape=mxgraph.aws4.elastic_network_interface;" vertex="1" parent="65">
                    <mxGeometry x="82" y="60" width="78" height="78" as="geometry"/>
                </mxCell>
                <mxCell id="67" value="Central Ingress TGW Route Table" style="shape=table;startSize=30;container=1;collapsible=0;childLayout=tableLayout;strokeColor=#000000;fontSize=16;fontColor=#FFFFFF;fillColor=#9933FF;" vertex="1" parent="1">
                    <mxGeometry x="-40" y="880" width="290" height="150" as="geometry"/>
                </mxCell>
                <mxCell id="208" style="shape=tableRow;horizontal=0;startSize=0;swimlaneHead=0;swimlaneBody=0;top=0;left=0;bottom=0;right=0;collapsible=0;dropTarget=0;fillColor=none;points=[[0,0.5],[1,0.5]];portConstraint=eastwest;strokeColor=#000000;fontSize=18;fontColor=#009900;" vertex="1" parent="67">
                    <mxGeometry y="30" width="290" height="40" as="geometry"/>
                </mxCell>
                <mxCell id="209" value="Destination" style="shape=partialRectangle;html=1;whiteSpace=wrap;connectable=0;overflow=hidden;fillColor=none;top=0;left=0;bottom=0;right=0;pointerEvents=1;strokeColor=#000000;fontSize=18;fontColor=#000000;fontStyle=3" vertex="1" parent="208">
                    <mxGeometry width="145" height="40" as="geometry">
                        <mxRectangle width="145" height="40" as="alternateBounds"/>
                    </mxGeometry>
                </mxCell>
                <mxCell id="210" value="Target" style="shape=partialRectangle;html=1;whiteSpace=wrap;connectable=0;overflow=hidden;fillColor=none;top=0;left=0;bottom=0;right=0;pointerEvents=1;strokeColor=#000000;fontSize=18;fontColor=#000000;fontStyle=3" vertex="1" parent="208">
                    <mxGeometry x="145" width="145" height="40" as="geometry">
                        <mxRectangle width="145" height="40" as="alternateBounds"/>
                    </mxGeometry>
                </mxCell>
                <mxCell id="68" value="" style="shape=tableRow;horizontal=0;startSize=0;swimlaneHead=0;swimlaneBody=0;top=0;left=0;bottom=0;right=0;collapsible=0;dropTarget=0;fillColor=none;points=[[0,0.5],[1,0.5]];portConstraint=eastwest;strokeColor=#000000;fontSize=18;fontColor=#009900;" vertex="1" parent="67">
                    <mxGeometry y="70" width="290" height="40" as="geometry"/>
                </mxCell>
                <mxCell id="69" value="&lt;span style=&quot;color: rgb(0, 0, 0); font-size: 18px;&quot;&gt;10.0.0.0/8&lt;/span&gt;" style="shape=partialRectangle;html=1;whiteSpace=wrap;connectable=0;overflow=hidden;fillColor=none;top=0;left=0;bottom=0;right=0;pointerEvents=1;strokeColor=#000000;fontSize=18;fontColor=#009900;" vertex="1" parent="68">
                    <mxGeometry width="145" height="40" as="geometry">
                        <mxRectangle width="145" height="40" as="alternateBounds"/>
                    </mxGeometry>
                </mxCell>
                <mxCell id="70" value="&lt;span style=&quot;color: rgb(0, 0, 0); font-size: 18px;&quot;&gt;tgw-id&lt;/span&gt;" style="shape=partialRectangle;html=1;whiteSpace=wrap;connectable=0;overflow=hidden;fillColor=none;top=0;left=0;bottom=0;right=0;pointerEvents=1;strokeColor=#000000;fontSize=18;fontColor=#009900;" vertex="1" parent="68">
                    <mxGeometry x="145" width="145" height="40" as="geometry">
                        <mxRectangle width="145" height="40" as="alternateBounds"/>
                    </mxGeometry>
                </mxCell>
                <mxCell id="71" value="" style="shape=tableRow;horizontal=0;startSize=0;swimlaneHead=0;swimlaneBody=0;top=0;left=0;bottom=0;right=0;collapsible=0;dropTarget=0;fillColor=none;points=[[0,0.5],[1,0.5]];portConstraint=eastwest;strokeColor=#000000;fontSize=18;fontColor=#009900;" vertex="1" parent="67">
                    <mxGeometry y="110" width="290" height="40" as="geometry"/>
                </mxCell>
                <mxCell id="72" value="&lt;span style=&quot;color: rgb(0, 0, 0); font-size: 18px;&quot;&gt;10.0.0.0/16&lt;/span&gt;" style="shape=partialRectangle;html=1;whiteSpace=wrap;connectable=0;overflow=hidden;fillColor=none;top=0;left=0;bottom=0;right=0;pointerEvents=1;strokeColor=#000000;fontSize=18;fontColor=#009900;" vertex="1" parent="71">
                    <mxGeometry width="145" height="40" as="geometry">
                        <mxRectangle width="145" height="40" as="alternateBounds"/>
                    </mxGeometry>
                </mxCell>
                <mxCell id="73" value="&lt;span style=&quot;color: rgb(0, 0, 0); font-size: 18px;&quot;&gt;local&lt;/span&gt;" style="shape=partialRectangle;html=1;whiteSpace=wrap;connectable=0;overflow=hidden;fillColor=none;top=0;left=0;bottom=0;right=0;pointerEvents=1;strokeColor=#000000;fontSize=18;fontColor=#009900;" vertex="1" parent="71">
                    <mxGeometry x="145" width="145" height="40" as="geometry">
                        <mxRectangle width="145" height="40" as="alternateBounds"/>
                    </mxGeometry>
                </mxCell>
                <mxCell id="78" style="edgeStyle=orthogonalEdgeStyle;html=1;strokeColor=#9933FF;strokeWidth=4;fontSize=16;fontColor=#FFFFFF;sourcePerimeterSpacing=35;targetPerimeterSpacing=15;startArrow=classic;startFill=1;endArrow=none;endFill=0;endSize=10;startSize=10;" edge="1" parent="1" source="75" target="64">
                    <mxGeometry relative="1" as="geometry"/>
                </mxCell>
                <mxCell id="79" style="edgeStyle=orthogonalEdgeStyle;html=1;strokeColor=#9933FF;strokeWidth=4;fontSize=16;fontColor=#FFFFFF;sourcePerimeterSpacing=35;targetPerimeterSpacing=15;endArrow=none;endFill=0;startArrow=classic;startFill=1;endSize=10;startSize=10;" edge="1" parent="1" source="76" target="66">
                    <mxGeometry relative="1" as="geometry"/>
                </mxCell>
                <mxCell id="81" style="edgeStyle=orthogonalEdgeStyle;html=1;strokeColor=#9933FF;strokeWidth=4;fontSize=16;fontColor=#FFFFFF;sourcePerimeterSpacing=35;targetPerimeterSpacing=15;startArrow=classic;startFill=1;endArrow=none;endFill=0;endSize=10;startSize=10;" edge="1" parent="1" source="80" target="75">
                    <mxGeometry relative="1" as="geometry"/>
                </mxCell>
                <mxCell id="83" style="edgeStyle=orthogonalEdgeStyle;html=1;strokeColor=#9933FF;strokeWidth=4;fontSize=16;fontColor=#FFFFFF;sourcePerimeterSpacing=35;targetPerimeterSpacing=15;startArrow=classic;startFill=1;endArrow=none;endFill=0;endSize=10;startSize=10;" edge="1" parent="1" source="82" target="76">
                    <mxGeometry relative="1" as="geometry"/>
                </mxCell>
                <mxCell id="86" value="Central Egress VPC (10.1.0.0/16, 10.5.0.32/27)" style="points=[[0,0],[0.25,0],[0.5,0],[0.75,0],[1,0],[1,0.25],[1,0.5],[1,0.75],[1,1],[0.75,1],[0.5,1],[0.25,1],[0,1],[0,0.75],[0,0.5],[0,0.25]];outlineConnect=0;gradientColor=none;html=1;whiteSpace=wrap;fontSize=20;fontStyle=1;container=1;pointerEvents=0;collapsible=0;recursiveResize=0;shape=mxgraph.aws4.group;grIcon=mxgraph.aws4.group_vpc;strokeColor=#248814;fillColor=none;verticalAlign=top;align=left;spacingLeft=30;fontColor=#009900;dashed=0;strokeWidth=2;" vertex="1" parent="1">
                    <mxGeometry x="1450" y="340" width="600" height="860" as="geometry"/>
                </mxCell>
                <mxCell id="87" value="Internet Gateway" style="sketch=0;outlineConnect=0;fontColor=#232F3E;gradientColor=none;fillColor=#4D27AA;strokeColor=none;dashed=0;verticalLabelPosition=top;verticalAlign=bottom;align=left;html=1;fontSize=18;fontStyle=1;aspect=fixed;pointerEvents=1;shape=mxgraph.aws4.internet_gateway;labelPosition=right;" vertex="1" parent="86">
                    <mxGeometry x="480" y="-40" width="78" height="78" as="geometry"/>
                </mxCell>
                <mxCell id="90" style="edgeStyle=orthogonalEdgeStyle;html=1;strokeColor=#9933FF;strokeWidth=4;fontSize=16;fontColor=#FFFFFF;startArrow=none;startFill=0;endArrow=none;endFill=0;sourcePerimeterSpacing=15;targetPerimeterSpacing=15;endSize=10;startSize=10;" edge="1" parent="1" source="80" target="87">
                    <mxGeometry relative="1" as="geometry">
                        <Array as="points">
                            <mxPoint x="1610" y="430"/>
                            <mxPoint x="1969" y="430"/>
                        </Array>
                    </mxGeometry>
                </mxCell>
                <mxCell id="91" style="edgeStyle=orthogonalEdgeStyle;html=1;strokeColor=#9933FF;strokeWidth=4;fontSize=16;fontColor=#FFFFFF;startArrow=none;startFill=0;endArrow=classic;endFill=1;sourcePerimeterSpacing=15;targetPerimeterSpacing=15;" edge="1" parent="1" source="82" target="87">
                    <mxGeometry relative="1" as="geometry">
                        <Array as="points">
                            <mxPoint x="1880" y="430"/>
                            <mxPoint x="1969" y="430"/>
                        </Array>
                    </mxGeometry>
                </mxCell>
                <mxCell id="93" value="Central Egress Public Route Table" style="shape=table;startSize=30;container=1;collapsible=0;childLayout=tableLayout;fontSize=16;fillColor=#9933FF;strokeColor=#000000;fontColor=#FFFFFF;" vertex="1" parent="1">
                    <mxGeometry x="1140" y="480" width="290" height="190" as="geometry"/>
                </mxCell>
                <mxCell id="211" style="shape=tableRow;horizontal=0;startSize=0;swimlaneHead=0;swimlaneBody=0;top=0;left=0;bottom=0;right=0;collapsible=0;dropTarget=0;fillColor=none;points=[[0,0.5],[1,0.5]];portConstraint=eastwest;fontSize=18;" vertex="1" parent="93">
                    <mxGeometry y="30" width="290" height="40" as="geometry"/>
                </mxCell>
                <mxCell id="212" value="&lt;span style=&quot;font-style: italic; font-weight: 700;&quot;&gt;Destination&lt;/span&gt;" style="shape=partialRectangle;html=1;whiteSpace=wrap;connectable=0;overflow=hidden;fillColor=none;top=0;left=0;bottom=0;right=0;pointerEvents=1;fontSize=18;" vertex="1" parent="211">
                    <mxGeometry width="145" height="40" as="geometry">
                        <mxRectangle width="145" height="40" as="alternateBounds"/>
                    </mxGeometry>
                </mxCell>
                <mxCell id="213" value="&lt;span style=&quot;font-style: italic; font-weight: 700;&quot;&gt;Target&lt;/span&gt;" style="shape=partialRectangle;html=1;whiteSpace=wrap;connectable=0;overflow=hidden;fillColor=none;top=0;left=0;bottom=0;right=0;pointerEvents=1;fontSize=18;" vertex="1" parent="211">
                    <mxGeometry x="145" width="145" height="40" as="geometry">
                        <mxRectangle width="145" height="40" as="alternateBounds"/>
                    </mxGeometry>
                </mxCell>
                <mxCell id="94" value="" style="shape=tableRow;horizontal=0;startSize=0;swimlaneHead=0;swimlaneBody=0;top=0;left=0;bottom=0;right=0;collapsible=0;dropTarget=0;fillColor=none;points=[[0,0.5],[1,0.5]];portConstraint=eastwest;fontSize=18;" vertex="1" parent="93">
                    <mxGeometry y="70" width="290" height="40" as="geometry"/>
                </mxCell>
                <mxCell id="95" value="0.0.0.0/0" style="shape=partialRectangle;html=1;whiteSpace=wrap;connectable=0;overflow=hidden;fillColor=none;top=0;left=0;bottom=0;right=0;pointerEvents=1;fontSize=18;" vertex="1" parent="94">
                    <mxGeometry width="145" height="40" as="geometry">
                        <mxRectangle width="145" height="40" as="alternateBounds"/>
                    </mxGeometry>
                </mxCell>
                <mxCell id="96" value="igw-id" style="shape=partialRectangle;html=1;whiteSpace=wrap;connectable=0;overflow=hidden;fillColor=none;top=0;left=0;bottom=0;right=0;pointerEvents=1;fontSize=18;" vertex="1" parent="94">
                    <mxGeometry x="145" width="145" height="40" as="geometry">
                        <mxRectangle width="145" height="40" as="alternateBounds"/>
                    </mxGeometry>
                </mxCell>
                <mxCell id="97" value="" style="shape=tableRow;horizontal=0;startSize=0;swimlaneHead=0;swimlaneBody=0;top=0;left=0;bottom=0;right=0;collapsible=0;dropTarget=0;fillColor=none;points=[[0,0.5],[1,0.5]];portConstraint=eastwest;fontSize=18;" vertex="1" parent="93">
                    <mxGeometry y="110" width="290" height="40" as="geometry"/>
                </mxCell>
                <mxCell id="98" value="10.0.0.0/8" style="shape=partialRectangle;html=1;whiteSpace=wrap;connectable=0;overflow=hidden;fillColor=none;top=0;left=0;bottom=0;right=0;pointerEvents=1;fontSize=18;" vertex="1" parent="97">
                    <mxGeometry width="145" height="40" as="geometry">
                        <mxRectangle width="145" height="40" as="alternateBounds"/>
                    </mxGeometry>
                </mxCell>
                <mxCell id="99" value="vpce-id-az-a" style="shape=partialRectangle;html=1;whiteSpace=wrap;connectable=0;overflow=hidden;fillColor=none;top=0;left=0;bottom=0;right=0;pointerEvents=1;fontSize=18;" vertex="1" parent="97">
                    <mxGeometry x="145" width="145" height="40" as="geometry">
                        <mxRectangle width="145" height="40" as="alternateBounds"/>
                    </mxGeometry>
                </mxCell>
                <mxCell id="100" value="" style="shape=tableRow;horizontal=0;startSize=0;swimlaneHead=0;swimlaneBody=0;top=0;left=0;bottom=0;right=0;collapsible=0;dropTarget=0;fillColor=none;points=[[0,0.5],[1,0.5]];portConstraint=eastwest;fontSize=18;" vertex="1" parent="93">
                    <mxGeometry y="150" width="290" height="40" as="geometry"/>
                </mxCell>
                <mxCell id="101" value="10.1.0.0/16" style="shape=partialRectangle;html=1;whiteSpace=wrap;connectable=0;overflow=hidden;fillColor=none;top=0;left=0;bottom=0;right=0;pointerEvents=1;fontSize=18;" vertex="1" parent="100">
                    <mxGeometry width="145" height="40" as="geometry">
                        <mxRectangle width="145" height="40" as="alternateBounds"/>
                    </mxGeometry>
                </mxCell>
                <mxCell id="102" value="local" style="shape=partialRectangle;html=1;whiteSpace=wrap;connectable=0;overflow=hidden;fillColor=none;top=0;left=0;bottom=0;right=0;pointerEvents=1;fontSize=18;" vertex="1" parent="100">
                    <mxGeometry x="145" width="145" height="40" as="geometry">
                        <mxRectangle width="145" height="40" as="alternateBounds"/>
                    </mxGeometry>
                </mxCell>
                <mxCell id="103" value="Central Egress Public Route Table" style="shape=table;startSize=30;container=1;collapsible=0;childLayout=tableLayout;fontSize=16;fillColor=#9933FF;strokeColor=#000000;fontColor=#FFFFFF;" vertex="1" parent="1">
                    <mxGeometry x="2070" y="480" width="290" height="190" as="geometry"/>
                </mxCell>
                <mxCell id="226" style="shape=tableRow;horizontal=0;startSize=0;swimlaneHead=0;swimlaneBody=0;top=0;left=0;bottom=0;right=0;collapsible=0;dropTarget=0;fillColor=none;points=[[0,0.5],[1,0.5]];portConstraint=eastwest;fontSize=18;" vertex="1" parent="103">
                    <mxGeometry y="30" width="290" height="40" as="geometry"/>
                </mxCell>
                <mxCell id="227" value="&lt;span style=&quot;font-style: italic; font-weight: 700;&quot;&gt;Destination&lt;/span&gt;" style="shape=partialRectangle;html=1;whiteSpace=wrap;connectable=0;overflow=hidden;fillColor=none;top=0;left=0;bottom=0;right=0;pointerEvents=1;fontSize=18;" vertex="1" parent="226">
                    <mxGeometry width="145" height="40" as="geometry">
                        <mxRectangle width="145" height="40" as="alternateBounds"/>
                    </mxGeometry>
                </mxCell>
                <mxCell id="228" value="&lt;span style=&quot;font-style: italic; font-weight: 700;&quot;&gt;Target&lt;/span&gt;" style="shape=partialRectangle;html=1;whiteSpace=wrap;connectable=0;overflow=hidden;fillColor=none;top=0;left=0;bottom=0;right=0;pointerEvents=1;fontSize=18;" vertex="1" parent="226">
                    <mxGeometry x="145" width="145" height="40" as="geometry">
                        <mxRectangle width="145" height="40" as="alternateBounds"/>
                    </mxGeometry>
                </mxCell>
                <mxCell id="104" value="" style="shape=tableRow;horizontal=0;startSize=0;swimlaneHead=0;swimlaneBody=0;top=0;left=0;bottom=0;right=0;collapsible=0;dropTarget=0;fillColor=none;points=[[0,0.5],[1,0.5]];portConstraint=eastwest;fontSize=18;" vertex="1" parent="103">
                    <mxGeometry y="70" width="290" height="40" as="geometry"/>
                </mxCell>
                <mxCell id="105" value="0.0.0.0/0" style="shape=partialRectangle;html=1;whiteSpace=wrap;connectable=0;overflow=hidden;fillColor=none;top=0;left=0;bottom=0;right=0;pointerEvents=1;fontSize=18;" vertex="1" parent="104">
                    <mxGeometry width="145" height="40" as="geometry">
                        <mxRectangle width="145" height="40" as="alternateBounds"/>
                    </mxGeometry>
                </mxCell>
                <mxCell id="106" value="igw-id" style="shape=partialRectangle;html=1;whiteSpace=wrap;connectable=0;overflow=hidden;fillColor=none;top=0;left=0;bottom=0;right=0;pointerEvents=1;fontSize=18;" vertex="1" parent="104">
                    <mxGeometry x="145" width="145" height="40" as="geometry">
                        <mxRectangle width="145" height="40" as="alternateBounds"/>
                    </mxGeometry>
                </mxCell>
                <mxCell id="107" value="" style="shape=tableRow;horizontal=0;startSize=0;swimlaneHead=0;swimlaneBody=0;top=0;left=0;bottom=0;right=0;collapsible=0;dropTarget=0;fillColor=none;points=[[0,0.5],[1,0.5]];portConstraint=eastwest;fontSize=18;" vertex="1" parent="103">
                    <mxGeometry y="110" width="290" height="40" as="geometry"/>
                </mxCell>
                <mxCell id="108" value="10.0.0.0/8" style="shape=partialRectangle;html=1;whiteSpace=wrap;connectable=0;overflow=hidden;fillColor=none;top=0;left=0;bottom=0;right=0;pointerEvents=1;fontSize=18;" vertex="1" parent="107">
                    <mxGeometry width="145" height="40" as="geometry">
                        <mxRectangle width="145" height="40" as="alternateBounds"/>
                    </mxGeometry>
                </mxCell>
                <mxCell id="109" value="vpce-id-az-c" style="shape=partialRectangle;html=1;whiteSpace=wrap;connectable=0;overflow=hidden;fillColor=none;top=0;left=0;bottom=0;right=0;pointerEvents=1;fontSize=18;" vertex="1" parent="107">
                    <mxGeometry x="145" width="145" height="40" as="geometry">
                        <mxRectangle width="145" height="40" as="alternateBounds"/>
                    </mxGeometry>
                </mxCell>
                <mxCell id="110" value="" style="shape=tableRow;horizontal=0;startSize=0;swimlaneHead=0;swimlaneBody=0;top=0;left=0;bottom=0;right=0;collapsible=0;dropTarget=0;fillColor=none;points=[[0,0.5],[1,0.5]];portConstraint=eastwest;fontSize=18;" vertex="1" parent="103">
                    <mxGeometry y="150" width="290" height="40" as="geometry"/>
                </mxCell>
                <mxCell id="111" value="10.1.0.0/16" style="shape=partialRectangle;html=1;whiteSpace=wrap;connectable=0;overflow=hidden;fillColor=none;top=0;left=0;bottom=0;right=0;pointerEvents=1;fontSize=18;" vertex="1" parent="110">
                    <mxGeometry width="145" height="40" as="geometry">
                        <mxRectangle width="145" height="40" as="alternateBounds"/>
                    </mxGeometry>
                </mxCell>
                <mxCell id="112" value="local" style="shape=partialRectangle;html=1;whiteSpace=wrap;connectable=0;overflow=hidden;fillColor=none;top=0;left=0;bottom=0;right=0;pointerEvents=1;fontSize=18;" vertex="1" parent="110">
                    <mxGeometry x="145" width="145" height="40" as="geometry">
                        <mxRectangle width="145" height="40" as="alternateBounds"/>
                    </mxGeometry>
                </mxCell>
                <mxCell id="113" value="Central Egress Firewall Route Table" style="shape=table;startSize=30;container=1;collapsible=0;childLayout=tableLayout;fontSize=16;fillColor=#9933FF;strokeColor=#000000;fontColor=#FFFFFF;" vertex="1" parent="1">
                    <mxGeometry x="2070" y="720" width="290" height="190" as="geometry"/>
                </mxCell>
                <mxCell id="220" style="shape=tableRow;horizontal=0;startSize=0;swimlaneHead=0;swimlaneBody=0;top=0;left=0;bottom=0;right=0;collapsible=0;dropTarget=0;fillColor=none;points=[[0,0.5],[1,0.5]];portConstraint=eastwest;fontSize=18;" vertex="1" parent="113">
                    <mxGeometry y="30" width="290" height="40" as="geometry"/>
                </mxCell>
                <mxCell id="221" value="&lt;span style=&quot;font-style: italic; font-weight: 700;&quot;&gt;Destination&lt;/span&gt;" style="shape=partialRectangle;html=1;whiteSpace=wrap;connectable=0;overflow=hidden;fillColor=none;top=0;left=0;bottom=0;right=0;pointerEvents=1;fontSize=18;" vertex="1" parent="220">
                    <mxGeometry width="145" height="40" as="geometry">
                        <mxRectangle width="145" height="40" as="alternateBounds"/>
                    </mxGeometry>
                </mxCell>
                <mxCell id="222" value="&lt;span style=&quot;font-style: italic; font-weight: 700;&quot;&gt;Target&lt;/span&gt;" style="shape=partialRectangle;html=1;whiteSpace=wrap;connectable=0;overflow=hidden;fillColor=none;top=0;left=0;bottom=0;right=0;pointerEvents=1;fontSize=18;" vertex="1" parent="220">
                    <mxGeometry x="145" width="145" height="40" as="geometry">
                        <mxRectangle width="145" height="40" as="alternateBounds"/>
                    </mxGeometry>
                </mxCell>
                <mxCell id="114" value="" style="shape=tableRow;horizontal=0;startSize=0;swimlaneHead=0;swimlaneBody=0;top=0;left=0;bottom=0;right=0;collapsible=0;dropTarget=0;fillColor=none;points=[[0,0.5],[1,0.5]];portConstraint=eastwest;fontSize=18;" vertex="1" parent="113">
                    <mxGeometry y="70" width="290" height="40" as="geometry"/>
                </mxCell>
                <mxCell id="115" value="0.0.0.0/0" style="shape=partialRectangle;html=1;whiteSpace=wrap;connectable=0;overflow=hidden;fillColor=none;top=0;left=0;bottom=0;right=0;pointerEvents=1;fontSize=18;" vertex="1" parent="114">
                    <mxGeometry width="145" height="40" as="geometry">
                        <mxRectangle width="145" height="40" as="alternateBounds"/>
                    </mxGeometry>
                </mxCell>
                <mxCell id="116" value="nat-id-az-c" style="shape=partialRectangle;html=1;whiteSpace=wrap;connectable=0;overflow=hidden;fillColor=none;top=0;left=0;bottom=0;right=0;pointerEvents=1;fontSize=18;" vertex="1" parent="114">
                    <mxGeometry x="145" width="145" height="40" as="geometry">
                        <mxRectangle width="145" height="40" as="alternateBounds"/>
                    </mxGeometry>
                </mxCell>
                <mxCell id="117" value="" style="shape=tableRow;horizontal=0;startSize=0;swimlaneHead=0;swimlaneBody=0;top=0;left=0;bottom=0;right=0;collapsible=0;dropTarget=0;fillColor=none;points=[[0,0.5],[1,0.5]];portConstraint=eastwest;fontSize=18;" vertex="1" parent="113">
                    <mxGeometry y="110" width="290" height="40" as="geometry"/>
                </mxCell>
                <mxCell id="118" value="10.0.0.0/8" style="shape=partialRectangle;html=1;whiteSpace=wrap;connectable=0;overflow=hidden;fillColor=none;top=0;left=0;bottom=0;right=0;pointerEvents=1;fontSize=18;" vertex="1" parent="117">
                    <mxGeometry width="145" height="40" as="geometry">
                        <mxRectangle width="145" height="40" as="alternateBounds"/>
                    </mxGeometry>
                </mxCell>
                <mxCell id="119" value="tgw-id" style="shape=partialRectangle;html=1;whiteSpace=wrap;connectable=0;overflow=hidden;fillColor=none;top=0;left=0;bottom=0;right=0;pointerEvents=1;fontSize=18;" vertex="1" parent="117">
                    <mxGeometry x="145" width="145" height="40" as="geometry">
                        <mxRectangle width="145" height="40" as="alternateBounds"/>
                    </mxGeometry>
                </mxCell>
                <mxCell id="120" value="" style="shape=tableRow;horizontal=0;startSize=0;swimlaneHead=0;swimlaneBody=0;top=0;left=0;bottom=0;right=0;collapsible=0;dropTarget=0;fillColor=none;points=[[0,0.5],[1,0.5]];portConstraint=eastwest;fontSize=18;" vertex="1" parent="113">
                    <mxGeometry y="150" width="290" height="40" as="geometry"/>
                </mxCell>
                <mxCell id="121" value="10.1.0.0/16" style="shape=partialRectangle;html=1;whiteSpace=wrap;connectable=0;overflow=hidden;fillColor=none;top=0;left=0;bottom=0;right=0;pointerEvents=1;fontSize=18;" vertex="1" parent="120">
                    <mxGeometry width="145" height="40" as="geometry">
                        <mxRectangle width="145" height="40" as="alternateBounds"/>
                    </mxGeometry>
                </mxCell>
                <mxCell id="122" value="local" style="shape=partialRectangle;html=1;whiteSpace=wrap;connectable=0;overflow=hidden;fillColor=none;top=0;left=0;bottom=0;right=0;pointerEvents=1;fontSize=18;" vertex="1" parent="120">
                    <mxGeometry x="145" width="145" height="40" as="geometry">
                        <mxRectangle width="145" height="40" as="alternateBounds"/>
                    </mxGeometry>
                </mxCell>
                <mxCell id="123" value="Central Egress Firewall Route Table" style="shape=table;startSize=30;container=1;collapsible=0;childLayout=tableLayout;fontSize=16;fillColor=#9933FF;strokeColor=#000000;fontColor=#FFFFFF;" vertex="1" parent="1">
                    <mxGeometry x="1140" y="720" width="290" height="190" as="geometry"/>
                </mxCell>
                <mxCell id="214" style="shape=tableRow;horizontal=0;startSize=0;swimlaneHead=0;swimlaneBody=0;top=0;left=0;bottom=0;right=0;collapsible=0;dropTarget=0;fillColor=none;points=[[0,0.5],[1,0.5]];portConstraint=eastwest;fontSize=18;" vertex="1" parent="123">
                    <mxGeometry y="30" width="290" height="40" as="geometry"/>
                </mxCell>
                <mxCell id="215" value="&lt;span style=&quot;font-style: italic; font-weight: 700;&quot;&gt;Destination&lt;/span&gt;" style="shape=partialRectangle;html=1;whiteSpace=wrap;connectable=0;overflow=hidden;fillColor=none;top=0;left=0;bottom=0;right=0;pointerEvents=1;fontSize=18;" vertex="1" parent="214">
                    <mxGeometry width="145" height="40" as="geometry">
                        <mxRectangle width="145" height="40" as="alternateBounds"/>
                    </mxGeometry>
                </mxCell>
                <mxCell id="216" value="&lt;span style=&quot;font-style: italic; font-weight: 700;&quot;&gt;Target&lt;/span&gt;" style="shape=partialRectangle;html=1;whiteSpace=wrap;connectable=0;overflow=hidden;fillColor=none;top=0;left=0;bottom=0;right=0;pointerEvents=1;fontSize=18;" vertex="1" parent="214">
                    <mxGeometry x="145" width="145" height="40" as="geometry">
                        <mxRectangle width="145" height="40" as="alternateBounds"/>
                    </mxGeometry>
                </mxCell>
                <mxCell id="124" value="" style="shape=tableRow;horizontal=0;startSize=0;swimlaneHead=0;swimlaneBody=0;top=0;left=0;bottom=0;right=0;collapsible=0;dropTarget=0;fillColor=none;points=[[0,0.5],[1,0.5]];portConstraint=eastwest;fontSize=18;" vertex="1" parent="123">
                    <mxGeometry y="70" width="290" height="40" as="geometry"/>
                </mxCell>
                <mxCell id="125" value="0.0.0.0/0" style="shape=partialRectangle;html=1;whiteSpace=wrap;connectable=0;overflow=hidden;fillColor=none;top=0;left=0;bottom=0;right=0;pointerEvents=1;fontSize=18;" vertex="1" parent="124">
                    <mxGeometry width="145" height="40" as="geometry">
                        <mxRectangle width="145" height="40" as="alternateBounds"/>
                    </mxGeometry>
                </mxCell>
                <mxCell id="126" value="nat-id-az-a" style="shape=partialRectangle;html=1;whiteSpace=wrap;connectable=0;overflow=hidden;fillColor=none;top=0;left=0;bottom=0;right=0;pointerEvents=1;fontSize=18;" vertex="1" parent="124">
                    <mxGeometry x="145" width="145" height="40" as="geometry">
                        <mxRectangle width="145" height="40" as="alternateBounds"/>
                    </mxGeometry>
                </mxCell>
                <mxCell id="127" value="" style="shape=tableRow;horizontal=0;startSize=0;swimlaneHead=0;swimlaneBody=0;top=0;left=0;bottom=0;right=0;collapsible=0;dropTarget=0;fillColor=none;points=[[0,0.5],[1,0.5]];portConstraint=eastwest;fontSize=18;" vertex="1" parent="123">
                    <mxGeometry y="110" width="290" height="40" as="geometry"/>
                </mxCell>
                <mxCell id="128" value="10.0.0.0/8" style="shape=partialRectangle;html=1;whiteSpace=wrap;connectable=0;overflow=hidden;fillColor=none;top=0;left=0;bottom=0;right=0;pointerEvents=1;fontSize=18;" vertex="1" parent="127">
                    <mxGeometry width="145" height="40" as="geometry">
                        <mxRectangle width="145" height="40" as="alternateBounds"/>
                    </mxGeometry>
                </mxCell>
                <mxCell id="129" value="tgw-id" style="shape=partialRectangle;html=1;whiteSpace=wrap;connectable=0;overflow=hidden;fillColor=none;top=0;left=0;bottom=0;right=0;pointerEvents=1;fontSize=18;" vertex="1" parent="127">
                    <mxGeometry x="145" width="145" height="40" as="geometry">
                        <mxRectangle width="145" height="40" as="alternateBounds"/>
                    </mxGeometry>
                </mxCell>
                <mxCell id="130" value="" style="shape=tableRow;horizontal=0;startSize=0;swimlaneHead=0;swimlaneBody=0;top=0;left=0;bottom=0;right=0;collapsible=0;dropTarget=0;fillColor=none;points=[[0,0.5],[1,0.5]];portConstraint=eastwest;fontSize=18;" vertex="1" parent="123">
                    <mxGeometry y="150" width="290" height="40" as="geometry"/>
                </mxCell>
                <mxCell id="131" value="10.1.0.0/16" style="shape=partialRectangle;html=1;whiteSpace=wrap;connectable=0;overflow=hidden;fillColor=none;top=0;left=0;bottom=0;right=0;pointerEvents=1;fontSize=18;" vertex="1" parent="130">
                    <mxGeometry width="145" height="40" as="geometry">
                        <mxRectangle width="145" height="40" as="alternateBounds"/>
                    </mxGeometry>
                </mxCell>
                <mxCell id="132" value="local" style="shape=partialRectangle;html=1;whiteSpace=wrap;connectable=0;overflow=hidden;fillColor=none;top=0;left=0;bottom=0;right=0;pointerEvents=1;fontSize=18;" vertex="1" parent="130">
                    <mxGeometry x="145" width="145" height="40" as="geometry">
                        <mxRectangle width="145" height="40" as="alternateBounds"/>
                    </mxGeometry>
                </mxCell>
                <mxCell id="133" value="Central Egress TGW Route Table" style="shape=table;startSize=30;container=1;collapsible=0;childLayout=tableLayout;fontSize=16;fillColor=#9933FF;strokeColor=#000000;fontColor=#FFFFFF;" vertex="1" parent="1">
                    <mxGeometry x="1140" y="960" width="290" height="190" as="geometry"/>
                </mxCell>
                <mxCell id="217" style="shape=tableRow;horizontal=0;startSize=0;swimlaneHead=0;swimlaneBody=0;top=0;left=0;bottom=0;right=0;collapsible=0;dropTarget=0;fillColor=none;points=[[0,0.5],[1,0.5]];portConstraint=eastwest;fontSize=18;" vertex="1" parent="133">
                    <mxGeometry y="30" width="290" height="40" as="geometry"/>
                </mxCell>
                <mxCell id="218" value="&lt;span style=&quot;font-style: italic; font-weight: 700;&quot;&gt;Destination&lt;/span&gt;" style="shape=partialRectangle;html=1;whiteSpace=wrap;connectable=0;overflow=hidden;fillColor=none;top=0;left=0;bottom=0;right=0;pointerEvents=1;fontSize=18;" vertex="1" parent="217">
                    <mxGeometry width="145" height="40" as="geometry">
                        <mxRectangle width="145" height="40" as="alternateBounds"/>
                    </mxGeometry>
                </mxCell>
                <mxCell id="219" value="&lt;span style=&quot;font-style: italic; font-weight: 700;&quot;&gt;Target&lt;/span&gt;" style="shape=partialRectangle;html=1;whiteSpace=wrap;connectable=0;overflow=hidden;fillColor=none;top=0;left=0;bottom=0;right=0;pointerEvents=1;fontSize=18;" vertex="1" parent="217">
                    <mxGeometry x="145" width="145" height="40" as="geometry">
                        <mxRectangle width="145" height="40" as="alternateBounds"/>
                    </mxGeometry>
                </mxCell>
                <mxCell id="134" value="" style="shape=tableRow;horizontal=0;startSize=0;swimlaneHead=0;swimlaneBody=0;top=0;left=0;bottom=0;right=0;collapsible=0;dropTarget=0;fillColor=none;points=[[0,0.5],[1,0.5]];portConstraint=eastwest;fontSize=18;" vertex="1" parent="133">
                    <mxGeometry y="70" width="290" height="40" as="geometry"/>
                </mxCell>
                <mxCell id="135" value="0.0.0.0/0" style="shape=partialRectangle;html=1;whiteSpace=wrap;connectable=0;overflow=hidden;fillColor=none;top=0;left=0;bottom=0;right=0;pointerEvents=1;fontSize=18;" vertex="1" parent="134">
                    <mxGeometry width="145" height="40" as="geometry">
                        <mxRectangle width="145" height="40" as="alternateBounds"/>
                    </mxGeometry>
                </mxCell>
                <mxCell id="136" value="vpce-id-az-a" style="shape=partialRectangle;html=1;whiteSpace=wrap;connectable=0;overflow=hidden;fillColor=none;top=0;left=0;bottom=0;right=0;pointerEvents=1;fontSize=18;" vertex="1" parent="134">
                    <mxGeometry x="145" width="145" height="40" as="geometry">
                        <mxRectangle width="145" height="40" as="alternateBounds"/>
                    </mxGeometry>
                </mxCell>
                <mxCell id="137" value="" style="shape=tableRow;horizontal=0;startSize=0;swimlaneHead=0;swimlaneBody=0;top=0;left=0;bottom=0;right=0;collapsible=0;dropTarget=0;fillColor=none;points=[[0,0.5],[1,0.5]];portConstraint=eastwest;fontSize=18;" vertex="1" parent="133">
                    <mxGeometry y="110" width="290" height="40" as="geometry"/>
                </mxCell>
                <mxCell id="138" value="10.0.0.0/8" style="shape=partialRectangle;html=1;whiteSpace=wrap;connectable=0;overflow=hidden;fillColor=none;top=0;left=0;bottom=0;right=0;pointerEvents=1;fontSize=18;" vertex="1" parent="137">
                    <mxGeometry width="145" height="40" as="geometry">
                        <mxRectangle width="145" height="40" as="alternateBounds"/>
                    </mxGeometry>
                </mxCell>
                <mxCell id="139" value="tgw-id" style="shape=partialRectangle;html=1;whiteSpace=wrap;connectable=0;overflow=hidden;fillColor=none;top=0;left=0;bottom=0;right=0;pointerEvents=1;fontSize=18;" vertex="1" parent="137">
                    <mxGeometry x="145" width="145" height="40" as="geometry">
                        <mxRectangle width="145" height="40" as="alternateBounds"/>
                    </mxGeometry>
                </mxCell>
                <mxCell id="140" value="" style="shape=tableRow;horizontal=0;startSize=0;swimlaneHead=0;swimlaneBody=0;top=0;left=0;bottom=0;right=0;collapsible=0;dropTarget=0;fillColor=none;points=[[0,0.5],[1,0.5]];portConstraint=eastwest;fontSize=18;" vertex="1" parent="133">
                    <mxGeometry y="150" width="290" height="40" as="geometry"/>
                </mxCell>
                <mxCell id="141" value="10.1.0.0/16" style="shape=partialRectangle;html=1;whiteSpace=wrap;connectable=0;overflow=hidden;fillColor=none;top=0;left=0;bottom=0;right=0;pointerEvents=1;fontSize=18;" vertex="1" parent="140">
                    <mxGeometry width="145" height="40" as="geometry">
                        <mxRectangle width="145" height="40" as="alternateBounds"/>
                    </mxGeometry>
                </mxCell>
                <mxCell id="142" value="local" style="shape=partialRectangle;html=1;whiteSpace=wrap;connectable=0;overflow=hidden;fillColor=none;top=0;left=0;bottom=0;right=0;pointerEvents=1;fontSize=18;" vertex="1" parent="140">
                    <mxGeometry x="145" width="145" height="40" as="geometry">
                        <mxRectangle width="145" height="40" as="alternateBounds"/>
                    </mxGeometry>
                </mxCell>
                <mxCell id="143" value="Central Egress TGW Route Table" style="shape=table;startSize=30;container=1;collapsible=0;childLayout=tableLayout;fontSize=16;fillColor=#9933FF;strokeColor=#000000;fontColor=#FFFFFF;" vertex="1" parent="1">
                    <mxGeometry x="2070" y="960" width="290" height="190" as="geometry"/>
                </mxCell>
                <mxCell id="223" style="shape=tableRow;horizontal=0;startSize=0;swimlaneHead=0;swimlaneBody=0;top=0;left=0;bottom=0;right=0;collapsible=0;dropTarget=0;fillColor=none;points=[[0,0.5],[1,0.5]];portConstraint=eastwest;fontSize=18;" vertex="1" parent="143">
                    <mxGeometry y="30" width="290" height="40" as="geometry"/>
                </mxCell>
                <mxCell id="224" value="&lt;span style=&quot;font-style: italic; font-weight: 700;&quot;&gt;Destination&lt;/span&gt;" style="shape=partialRectangle;html=1;whiteSpace=wrap;connectable=0;overflow=hidden;fillColor=none;top=0;left=0;bottom=0;right=0;pointerEvents=1;fontSize=18;" vertex="1" parent="223">
                    <mxGeometry width="145" height="40" as="geometry">
                        <mxRectangle width="145" height="40" as="alternateBounds"/>
                    </mxGeometry>
                </mxCell>
                <mxCell id="225" value="&lt;span style=&quot;font-style: italic; font-weight: 700;&quot;&gt;Target&lt;/span&gt;" style="shape=partialRectangle;html=1;whiteSpace=wrap;connectable=0;overflow=hidden;fillColor=none;top=0;left=0;bottom=0;right=0;pointerEvents=1;fontSize=18;" vertex="1" parent="223">
                    <mxGeometry x="145" width="145" height="40" as="geometry">
                        <mxRectangle width="145" height="40" as="alternateBounds"/>
                    </mxGeometry>
                </mxCell>
                <mxCell id="144" value="" style="shape=tableRow;horizontal=0;startSize=0;swimlaneHead=0;swimlaneBody=0;top=0;left=0;bottom=0;right=0;collapsible=0;dropTarget=0;fillColor=none;points=[[0,0.5],[1,0.5]];portConstraint=eastwest;fontSize=18;" vertex="1" parent="143">
                    <mxGeometry y="70" width="290" height="40" as="geometry"/>
                </mxCell>
                <mxCell id="145" value="0.0.0.0/0" style="shape=partialRectangle;html=1;whiteSpace=wrap;connectable=0;overflow=hidden;fillColor=none;top=0;left=0;bottom=0;right=0;pointerEvents=1;fontSize=18;" vertex="1" parent="144">
                    <mxGeometry width="145" height="40" as="geometry">
                        <mxRectangle width="145" height="40" as="alternateBounds"/>
                    </mxGeometry>
                </mxCell>
                <mxCell id="146" value="vpce-id-az-c" style="shape=partialRectangle;html=1;whiteSpace=wrap;connectable=0;overflow=hidden;fillColor=none;top=0;left=0;bottom=0;right=0;pointerEvents=1;fontSize=18;" vertex="1" parent="144">
                    <mxGeometry x="145" width="145" height="40" as="geometry">
                        <mxRectangle width="145" height="40" as="alternateBounds"/>
                    </mxGeometry>
                </mxCell>
                <mxCell id="147" value="" style="shape=tableRow;horizontal=0;startSize=0;swimlaneHead=0;swimlaneBody=0;top=0;left=0;bottom=0;right=0;collapsible=0;dropTarget=0;fillColor=none;points=[[0,0.5],[1,0.5]];portConstraint=eastwest;fontSize=18;" vertex="1" parent="143">
                    <mxGeometry y="110" width="290" height="40" as="geometry"/>
                </mxCell>
                <mxCell id="148" value="10.0.0.0/8" style="shape=partialRectangle;html=1;whiteSpace=wrap;connectable=0;overflow=hidden;fillColor=none;top=0;left=0;bottom=0;right=0;pointerEvents=1;fontSize=18;" vertex="1" parent="147">
                    <mxGeometry width="145" height="40" as="geometry">
                        <mxRectangle width="145" height="40" as="alternateBounds"/>
                    </mxGeometry>
                </mxCell>
                <mxCell id="149" value="tgw-id" style="shape=partialRectangle;html=1;whiteSpace=wrap;connectable=0;overflow=hidden;fillColor=none;top=0;left=0;bottom=0;right=0;pointerEvents=1;fontSize=18;" vertex="1" parent="147">
                    <mxGeometry x="145" width="145" height="40" as="geometry">
                        <mxRectangle width="145" height="40" as="alternateBounds"/>
                    </mxGeometry>
                </mxCell>
                <mxCell id="150" value="" style="shape=tableRow;horizontal=0;startSize=0;swimlaneHead=0;swimlaneBody=0;top=0;left=0;bottom=0;right=0;collapsible=0;dropTarget=0;fillColor=none;points=[[0,0.5],[1,0.5]];portConstraint=eastwest;fontSize=18;" vertex="1" parent="143">
                    <mxGeometry y="150" width="290" height="40" as="geometry"/>
                </mxCell>
                <mxCell id="151" value="10.1.0.0/16" style="shape=partialRectangle;html=1;whiteSpace=wrap;connectable=0;overflow=hidden;fillColor=none;top=0;left=0;bottom=0;right=0;pointerEvents=1;fontSize=18;" vertex="1" parent="150">
                    <mxGeometry width="145" height="40" as="geometry">
                        <mxRectangle width="145" height="40" as="alternateBounds"/>
                    </mxGeometry>
                </mxCell>
                <mxCell id="152" value="local" style="shape=partialRectangle;html=1;whiteSpace=wrap;connectable=0;overflow=hidden;fillColor=none;top=0;left=0;bottom=0;right=0;pointerEvents=1;fontSize=18;" vertex="1" parent="150">
                    <mxGeometry x="145" width="145" height="40" as="geometry">
                        <mxRectangle width="145" height="40" as="alternateBounds"/>
                    </mxGeometry>
                </mxCell>
                <mxCell id="153" value="" style="sketch=0;points=[[0,0,0],[0.25,0,0],[0.5,0,0],[0.75,0,0],[1,0,0],[0,1,0],[0.25,1,0],[0.5,1,0],[0.75,1,0],[1,1,0],[0,0.25,0],[0,0.5,0],[0,0.75,0],[1,0.25,0],[1,0.5,0],[1,0.75,0]];outlineConnect=0;fontColor=#232F3E;gradientColor=#945DF2;gradientDirection=north;fillColor=#5A30B5;strokeColor=#ffffff;dashed=0;verticalLabelPosition=bottom;verticalAlign=top;align=center;html=1;fontSize=12;fontStyle=0;aspect=fixed;shape=mxgraph.aws4.resourceIcon;resIcon=mxgraph.aws4.transit_gateway;" vertex="1" parent="1">
                    <mxGeometry x="10" y="1260" width="50" height="50" as="geometry"/>
                </mxCell>
                <mxCell id="156" value="Central Ingress VPC Route Table" style="shape=table;startSize=30;container=1;collapsible=0;childLayout=tableLayout;strokeColor=#000000;fontSize=18;fontColor=#FFFFFF;fillColor=#9933FF;" vertex="1" parent="1">
                    <mxGeometry x="70" y="1340" width="470" height="150" as="geometry"/>
                </mxCell>
                <mxCell id="229" style="shape=tableRow;horizontal=0;startSize=0;swimlaneHead=0;swimlaneBody=0;top=0;left=0;bottom=0;right=0;collapsible=0;dropTarget=0;fillColor=none;points=[[0,0.5],[1,0.5]];portConstraint=eastwest;strokeColor=#000000;fontSize=18;fontColor=#009900;" vertex="1" parent="156">
                    <mxGeometry y="30" width="470" height="40" as="geometry"/>
                </mxCell>
                <mxCell id="230" value="CIDR" style="shape=partialRectangle;html=1;whiteSpace=wrap;connectable=0;overflow=hidden;fillColor=none;top=0;left=0;bottom=0;right=0;pointerEvents=1;strokeColor=#000000;fontSize=18;fontColor=#000000;fontStyle=3" vertex="1" parent="229">
                    <mxGeometry width="160" height="40" as="geometry">
                        <mxRectangle width="160" height="40" as="alternateBounds"/>
                    </mxGeometry>
                </mxCell>
                <mxCell id="231" value="Attachment" style="shape=partialRectangle;html=1;whiteSpace=wrap;connectable=0;overflow=hidden;fillColor=none;top=0;left=0;bottom=0;right=0;pointerEvents=1;strokeColor=#000000;fontSize=18;fontColor=#000000;fontStyle=3" vertex="1" parent="229">
                    <mxGeometry x="160" width="310" height="40" as="geometry">
                        <mxRectangle width="310" height="40" as="alternateBounds"/>
                    </mxGeometry>
                </mxCell>
                <mxCell id="157" value="" style="shape=tableRow;horizontal=0;startSize=0;swimlaneHead=0;swimlaneBody=0;top=0;left=0;bottom=0;right=0;collapsible=0;dropTarget=0;fillColor=none;points=[[0,0.5],[1,0.5]];portConstraint=eastwest;strokeColor=#000000;fontSize=18;fontColor=#009900;spacingLeft=4;align=left;" vertex="1" parent="156">
                    <mxGeometry y="70" width="470" height="40" as="geometry"/>
                </mxCell>
                <mxCell id="158" value="&lt;span style=&quot;color: rgb(0, 0, 0); font-size: 18px;&quot;&gt;10.3.0.0/16&lt;/span&gt;" style="shape=partialRectangle;html=1;whiteSpace=wrap;connectable=0;overflow=hidden;fillColor=none;top=0;left=0;bottom=0;right=0;pointerEvents=1;strokeColor=#000000;fontSize=18;fontColor=#009900;spacingLeft=4;align=left;" vertex="1" parent="157">
                    <mxGeometry width="160" height="40" as="geometry">
                        <mxRectangle width="160" height="40" as="alternateBounds"/>
                    </mxGeometry>
                </mxCell>
                <mxCell id="159" value="&lt;font color=&quot;#000000&quot;&gt;Workload VPC A&amp;nbsp; Attachment&lt;/font&gt;" style="shape=partialRectangle;html=1;whiteSpace=wrap;connectable=0;overflow=hidden;fillColor=none;top=0;left=0;bottom=0;right=0;pointerEvents=1;strokeColor=#000000;fontSize=18;fontColor=#009900;spacingLeft=4;align=left;" vertex="1" parent="157">
                    <mxGeometry x="160" width="310" height="40" as="geometry">
                        <mxRectangle width="310" height="40" as="alternateBounds"/>
                    </mxGeometry>
                </mxCell>
                <mxCell id="262" style="shape=tableRow;horizontal=0;startSize=0;swimlaneHead=0;swimlaneBody=0;top=0;left=0;bottom=0;right=0;collapsible=0;dropTarget=0;fillColor=none;points=[[0,0.5],[1,0.5]];portConstraint=eastwest;strokeColor=#000000;fontSize=18;fontColor=#000000;spacingLeft=4;align=left;" vertex="1" parent="156">
                    <mxGeometry y="110" width="470" height="40" as="geometry"/>
                </mxCell>
                <mxCell id="263" value="10.4.0.0/16" style="shape=partialRectangle;html=1;whiteSpace=wrap;connectable=0;overflow=hidden;fillColor=none;top=0;left=0;bottom=0;right=0;pointerEvents=1;strokeColor=#000000;fontSize=18;fontColor=#000000;spacingLeft=4;align=left;" vertex="1" parent="262">
                    <mxGeometry width="160" height="40" as="geometry">
                        <mxRectangle width="160" height="40" as="alternateBounds"/>
                    </mxGeometry>
                </mxCell>
                <mxCell id="264" value="&lt;span style=&quot;&quot;&gt;Workload VPC B&amp;nbsp; Attachment&lt;/span&gt;" style="shape=partialRectangle;html=1;whiteSpace=wrap;connectable=0;overflow=hidden;fillColor=none;top=0;left=0;bottom=0;right=0;pointerEvents=1;strokeColor=#000000;fontSize=18;fontColor=#000000;spacingLeft=4;align=left;" vertex="1" parent="262">
                    <mxGeometry x="160" width="310" height="40" as="geometry">
                        <mxRectangle width="310" height="40" as="alternateBounds"/>
                    </mxGeometry>
                </mxCell>
                <mxCell id="232" value="Central Egress VPC Route Table" style="shape=table;startSize=30;container=1;collapsible=0;childLayout=tableLayout;strokeColor=#000000;fontSize=18;fontColor=#FFFFFF;fillColor=#9933FF;" vertex="1" parent="1">
                    <mxGeometry x="70" y="1540" width="470" height="150" as="geometry"/>
                </mxCell>
                <mxCell id="233" style="shape=tableRow;horizontal=0;startSize=0;swimlaneHead=0;swimlaneBody=0;top=0;left=0;bottom=0;right=0;collapsible=0;dropTarget=0;fillColor=none;points=[[0,0.5],[1,0.5]];portConstraint=eastwest;strokeColor=#000000;fontSize=18;fontColor=#009900;" vertex="1" parent="232">
                    <mxGeometry y="30" width="470" height="40" as="geometry"/>
                </mxCell>
                <mxCell id="234" value="CIDR" style="shape=partialRectangle;html=1;whiteSpace=wrap;connectable=0;overflow=hidden;fillColor=none;top=0;left=0;bottom=0;right=0;pointerEvents=1;strokeColor=#000000;fontSize=18;fontColor=#000000;fontStyle=3" vertex="1" parent="233">
                    <mxGeometry width="160" height="40" as="geometry">
                        <mxRectangle width="160" height="40" as="alternateBounds"/>
                    </mxGeometry>
                </mxCell>
                <mxCell id="235" value="Attachment" style="shape=partialRectangle;html=1;whiteSpace=wrap;connectable=0;overflow=hidden;fillColor=none;top=0;left=0;bottom=0;right=0;pointerEvents=1;strokeColor=#000000;fontSize=18;fontColor=#000000;fontStyle=3" vertex="1" parent="233">
                    <mxGeometry x="160" width="310" height="40" as="geometry">
                        <mxRectangle width="310" height="40" as="alternateBounds"/>
                    </mxGeometry>
                </mxCell>
                <mxCell id="236" value="" style="shape=tableRow;horizontal=0;startSize=0;swimlaneHead=0;swimlaneBody=0;top=0;left=0;bottom=0;right=0;collapsible=0;dropTarget=0;fillColor=none;points=[[0,0.5],[1,0.5]];portConstraint=eastwest;strokeColor=#000000;fontSize=18;fontColor=#009900;align=left;spacingLeft=4;" vertex="1" parent="232">
                    <mxGeometry y="70" width="470" height="40" as="geometry"/>
                </mxCell>
                <mxCell id="237" value="&lt;span style=&quot;color: rgb(0, 0, 0); font-size: 18px;&quot;&gt;10.3.0.0/16&lt;/span&gt;" style="shape=partialRectangle;html=1;whiteSpace=wrap;connectable=0;overflow=hidden;fillColor=none;top=0;left=0;bottom=0;right=0;pointerEvents=1;strokeColor=#000000;fontSize=18;fontColor=#009900;align=left;spacingLeft=4;" vertex="1" parent="236">
                    <mxGeometry width="160" height="40" as="geometry">
                        <mxRectangle width="160" height="40" as="alternateBounds"/>
                    </mxGeometry>
                </mxCell>
                <mxCell id="238" value="&lt;font color=&quot;#000000&quot;&gt;Workload VPC A&amp;nbsp; Attachment&lt;/font&gt;" style="shape=partialRectangle;html=1;whiteSpace=wrap;connectable=0;overflow=hidden;fillColor=none;top=0;left=0;bottom=0;right=0;pointerEvents=1;strokeColor=#000000;fontSize=18;fontColor=#009900;align=left;spacingLeft=4;" vertex="1" parent="236">
                    <mxGeometry x="160" width="310" height="40" as="geometry">
                        <mxRectangle width="310" height="40" as="alternateBounds"/>
                    </mxGeometry>
                </mxCell>
                <mxCell id="242" style="shape=tableRow;horizontal=0;startSize=0;swimlaneHead=0;swimlaneBody=0;top=0;left=0;bottom=0;right=0;collapsible=0;dropTarget=0;fillColor=none;points=[[0,0.5],[1,0.5]];portConstraint=eastwest;strokeColor=#000000;fontSize=18;fontColor=#000000;align=left;spacingLeft=4;" vertex="1" parent="232">
                    <mxGeometry y="110" width="470" height="40" as="geometry"/>
                </mxCell>
                <mxCell id="243" value="&lt;span style=&quot;&quot;&gt;10.4.0.0/16&lt;/span&gt;" style="shape=partialRectangle;html=1;whiteSpace=wrap;connectable=0;overflow=hidden;fillColor=none;top=0;left=0;bottom=0;right=0;pointerEvents=1;strokeColor=#000000;fontSize=18;fontColor=#000000;align=left;spacingLeft=4;" vertex="1" parent="242">
                    <mxGeometry width="160" height="40" as="geometry">
                        <mxRectangle width="160" height="40" as="alternateBounds"/>
                    </mxGeometry>
                </mxCell>
                <mxCell id="244" value="Workload VPC B&amp;nbsp; Attachment" style="shape=partialRectangle;html=1;whiteSpace=wrap;connectable=0;overflow=hidden;fillColor=none;top=0;left=0;bottom=0;right=0;pointerEvents=1;strokeColor=#000000;fontSize=18;fontColor=#000000;align=left;spacingLeft=4;" vertex="1" parent="242">
                    <mxGeometry x="160" width="310" height="40" as="geometry">
                        <mxRectangle width="310" height="40" as="alternateBounds"/>
                    </mxGeometry>
                </mxCell>
                <mxCell id="245" value="Inspection VPC Route Table" style="shape=table;startSize=30;container=1;collapsible=0;childLayout=tableLayout;strokeColor=#000000;fontSize=18;fontColor=#FFFFFF;fillColor=#9933FF;" vertex="1" parent="1">
                    <mxGeometry x="590" y="1340" width="470" height="230" as="geometry"/>
                </mxCell>
                <mxCell id="246" style="shape=tableRow;horizontal=0;startSize=0;swimlaneHead=0;swimlaneBody=0;top=0;left=0;bottom=0;right=0;collapsible=0;dropTarget=0;fillColor=none;points=[[0,0.5],[1,0.5]];portConstraint=eastwest;strokeColor=#000000;fontSize=18;fontColor=#009900;" vertex="1" parent="245">
                    <mxGeometry y="30" width="470" height="40" as="geometry"/>
                </mxCell>
                <mxCell id="247" value="CIDR" style="shape=partialRectangle;html=1;whiteSpace=wrap;connectable=0;overflow=hidden;fillColor=none;top=0;left=0;bottom=0;right=0;pointerEvents=1;strokeColor=#000000;fontSize=18;fontColor=#000000;fontStyle=3" vertex="1" parent="246">
                    <mxGeometry width="160" height="40" as="geometry">
                        <mxRectangle width="160" height="40" as="alternateBounds"/>
                    </mxGeometry>
                </mxCell>
                <mxCell id="248" value="Attachment" style="shape=partialRectangle;html=1;whiteSpace=wrap;connectable=0;overflow=hidden;fillColor=none;top=0;left=0;bottom=0;right=0;pointerEvents=1;strokeColor=#000000;fontSize=18;fontColor=#000000;fontStyle=3" vertex="1" parent="246">
                    <mxGeometry x="160" width="310" height="40" as="geometry">
                        <mxRectangle width="310" height="40" as="alternateBounds"/>
                    </mxGeometry>
                </mxCell>
                <mxCell id="249" value="" style="shape=tableRow;horizontal=0;startSize=0;swimlaneHead=0;swimlaneBody=0;top=0;left=0;bottom=0;right=0;collapsible=0;dropTarget=0;fillColor=none;points=[[0,0.5],[1,0.5]];portConstraint=eastwest;strokeColor=#000000;fontSize=18;fontColor=#009900;spacingLeft=4;align=left;" vertex="1" parent="245">
                    <mxGeometry y="70" width="470" height="40" as="geometry"/>
                </mxCell>
                <mxCell id="250" value="&lt;span style=&quot;color: rgb(0, 0, 0); font-size: 18px;&quot;&gt;10.3.0.0/16&lt;/span&gt;" style="shape=partialRectangle;html=1;whiteSpace=wrap;connectable=0;overflow=hidden;fillColor=none;top=0;left=0;bottom=0;right=0;pointerEvents=1;strokeColor=#000000;fontSize=18;fontColor=#009900;spacingLeft=4;align=left;" vertex="1" parent="249">
                    <mxGeometry width="160" height="40" as="geometry">
                        <mxRectangle width="160" height="40" as="alternateBounds"/>
                    </mxGeometry>
                </mxCell>
                <mxCell id="251" value="&lt;font color=&quot;#000000&quot;&gt;Workload VPC A&amp;nbsp; Attachment&lt;/font&gt;" style="shape=partialRectangle;html=1;whiteSpace=wrap;connectable=0;overflow=hidden;fillColor=none;top=0;left=0;bottom=0;right=0;pointerEvents=1;strokeColor=#000000;fontSize=18;fontColor=#009900;spacingLeft=4;align=left;" vertex="1" parent="249">
                    <mxGeometry x="160" width="310" height="40" as="geometry">
                        <mxRectangle width="310" height="40" as="alternateBounds"/>
                    </mxGeometry>
                </mxCell>
                <mxCell id="258" style="shape=tableRow;horizontal=0;startSize=0;swimlaneHead=0;swimlaneBody=0;top=0;left=0;bottom=0;right=0;collapsible=0;dropTarget=0;fillColor=none;points=[[0,0.5],[1,0.5]];portConstraint=eastwest;strokeColor=#000000;fontSize=18;fontColor=#000000;spacingLeft=4;align=left;" vertex="1" parent="245">
                    <mxGeometry y="110" width="470" height="40" as="geometry"/>
                </mxCell>
                <mxCell id="259" value="10.4.0.0/16" style="shape=partialRectangle;html=1;whiteSpace=wrap;connectable=0;overflow=hidden;fillColor=none;top=0;left=0;bottom=0;right=0;pointerEvents=1;strokeColor=#000000;fontSize=18;fontColor=#000000;spacingLeft=4;align=left;" vertex="1" parent="258">
                    <mxGeometry width="160" height="40" as="geometry">
                        <mxRectangle width="160" height="40" as="alternateBounds"/>
                    </mxGeometry>
                </mxCell>
                <mxCell id="260" value="Workload VPC B Attachment" style="shape=partialRectangle;html=1;whiteSpace=wrap;connectable=0;overflow=hidden;fillColor=none;top=0;left=0;bottom=0;right=0;pointerEvents=1;strokeColor=#000000;fontSize=18;fontColor=#000000;spacingLeft=4;align=left;" vertex="1" parent="258">
                    <mxGeometry x="160" width="310" height="40" as="geometry">
                        <mxRectangle width="310" height="40" as="alternateBounds"/>
                    </mxGeometry>
                </mxCell>
                <mxCell id="252" style="shape=tableRow;horizontal=0;startSize=0;swimlaneHead=0;swimlaneBody=0;top=0;left=0;bottom=0;right=0;collapsible=0;dropTarget=0;fillColor=none;points=[[0,0.5],[1,0.5]];portConstraint=eastwest;strokeColor=#000000;fontSize=18;fontColor=#000000;spacingLeft=4;align=left;" vertex="1" parent="245">
                    <mxGeometry y="150" width="470" height="40" as="geometry"/>
                </mxCell>
                <mxCell id="253" value="10.0.0.0/16" style="shape=partialRectangle;html=1;whiteSpace=wrap;connectable=0;overflow=hidden;fillColor=none;top=0;left=0;bottom=0;right=0;pointerEvents=1;strokeColor=#000000;fontSize=18;fontColor=#000000;spacingLeft=4;align=left;" vertex="1" parent="252">
                    <mxGeometry width="160" height="40" as="geometry">
                        <mxRectangle width="160" height="40" as="alternateBounds"/>
                    </mxGeometry>
                </mxCell>
                <mxCell id="254" value="Central Ingress VPC Attachment" style="shape=partialRectangle;html=1;whiteSpace=wrap;connectable=0;overflow=hidden;fillColor=none;top=0;left=0;bottom=0;right=0;pointerEvents=1;strokeColor=#000000;fontSize=18;fontColor=#000000;spacingLeft=4;align=left;" vertex="1" parent="252">
                    <mxGeometry x="160" width="310" height="40" as="geometry">
                        <mxRectangle width="310" height="40" as="alternateBounds"/>
                    </mxGeometry>
                </mxCell>
                <mxCell id="255" style="shape=tableRow;horizontal=0;startSize=0;swimlaneHead=0;swimlaneBody=0;top=0;left=0;bottom=0;right=0;collapsible=0;dropTarget=0;fillColor=none;points=[[0,0.5],[1,0.5]];portConstraint=eastwest;strokeColor=#000000;fontSize=18;fontColor=#000000;spacingLeft=4;align=left;" vertex="1" parent="245">
                    <mxGeometry y="190" width="470" height="40" as="geometry"/>
                </mxCell>
                <mxCell id="256" value="192.168.0.0/16" style="shape=partialRectangle;html=1;whiteSpace=wrap;connectable=0;overflow=hidden;fillColor=none;top=0;left=0;bottom=0;right=0;pointerEvents=1;strokeColor=#000000;fontSize=18;fontColor=#000000;spacingLeft=4;align=left;" vertex="1" parent="255">
                    <mxGeometry width="160" height="40" as="geometry">
                        <mxRectangle width="160" height="40" as="alternateBounds"/>
                    </mxGeometry>
                </mxCell>
                <mxCell id="257" value="Direct Connect Gateway Attachment" style="shape=partialRectangle;html=1;whiteSpace=wrap;connectable=0;overflow=hidden;fillColor=none;top=0;left=0;bottom=0;right=0;pointerEvents=1;strokeColor=#000000;fontSize=18;fontColor=#000000;spacingLeft=4;align=left;" vertex="1" parent="255">
                    <mxGeometry x="160" width="310" height="40" as="geometry">
                        <mxRectangle width="310" height="40" as="alternateBounds"/>
                    </mxGeometry>
                </mxCell>
                <mxCell id="265" value="Workload VPC A  Route Table" style="shape=table;startSize=30;container=1;collapsible=0;childLayout=tableLayout;strokeColor=#000000;fontSize=18;fontColor=#FFFFFF;fillColor=#9933FF;" vertex="1" parent="1">
                    <mxGeometry x="590" y="1595" width="470" height="190" as="geometry"/>
                </mxCell>
                <mxCell id="266" style="shape=tableRow;horizontal=0;startSize=0;swimlaneHead=0;swimlaneBody=0;top=0;left=0;bottom=0;right=0;collapsible=0;dropTarget=0;fillColor=none;points=[[0,0.5],[1,0.5]];portConstraint=eastwest;strokeColor=#000000;fontSize=18;fontColor=#009900;" vertex="1" parent="265">
                    <mxGeometry y="30" width="470" height="40" as="geometry"/>
                </mxCell>
                <mxCell id="267" value="CIDR" style="shape=partialRectangle;html=1;whiteSpace=wrap;connectable=0;overflow=hidden;fillColor=none;top=0;left=0;bottom=0;right=0;pointerEvents=1;strokeColor=#000000;fontSize=18;fontColor=#000000;fontStyle=3" vertex="1" parent="266">
                    <mxGeometry width="160" height="40" as="geometry">
                        <mxRectangle width="160" height="40" as="alternateBounds"/>
                    </mxGeometry>
                </mxCell>
                <mxCell id="268" value="Attachment" style="shape=partialRectangle;html=1;whiteSpace=wrap;connectable=0;overflow=hidden;fillColor=none;top=0;left=0;bottom=0;right=0;pointerEvents=1;strokeColor=#000000;fontSize=18;fontColor=#000000;fontStyle=3" vertex="1" parent="266">
                    <mxGeometry x="160" width="310" height="40" as="geometry">
                        <mxRectangle width="310" height="40" as="alternateBounds"/>
                    </mxGeometry>
                </mxCell>
                <mxCell id="269" value="" style="shape=tableRow;horizontal=0;startSize=0;swimlaneHead=0;swimlaneBody=0;top=0;left=0;bottom=0;right=0;collapsible=0;dropTarget=0;fillColor=none;points=[[0,0.5],[1,0.5]];portConstraint=eastwest;strokeColor=#000000;fontSize=18;fontColor=#009900;align=left;spacingLeft=4;" vertex="1" parent="265">
                    <mxGeometry y="70" width="470" height="40" as="geometry"/>
                </mxCell>
                <mxCell id="270" value="&lt;span style=&quot;color: rgb(0, 0, 0); font-size: 18px;&quot;&gt;10.0.0.0/8&lt;/span&gt;" style="shape=partialRectangle;html=1;whiteSpace=wrap;connectable=0;overflow=hidden;fillColor=none;top=0;left=0;bottom=0;right=0;pointerEvents=1;strokeColor=#000000;fontSize=18;fontColor=#009900;align=left;spacingLeft=4;" vertex="1" parent="269">
                    <mxGeometry width="160" height="40" as="geometry">
                        <mxRectangle width="160" height="40" as="alternateBounds"/>
                    </mxGeometry>
                </mxCell>
                <mxCell id="271" value="&lt;span style=&quot;color: rgb(0, 0, 0);&quot;&gt;Inspection VPC Attachment&lt;/span&gt;" style="shape=partialRectangle;html=1;whiteSpace=wrap;connectable=0;overflow=hidden;fillColor=none;top=0;left=0;bottom=0;right=0;pointerEvents=1;strokeColor=#000000;fontSize=18;fontColor=#009900;align=left;spacingLeft=4;" vertex="1" parent="269">
                    <mxGeometry x="160" width="310" height="40" as="geometry">
                        <mxRectangle width="310" height="40" as="alternateBounds"/>
                    </mxGeometry>
                </mxCell>
                <mxCell id="272" style="shape=tableRow;horizontal=0;startSize=0;swimlaneHead=0;swimlaneBody=0;top=0;left=0;bottom=0;right=0;collapsible=0;dropTarget=0;fillColor=none;points=[[0,0.5],[1,0.5]];portConstraint=eastwest;strokeColor=#000000;fontSize=18;fontColor=#000000;align=left;spacingLeft=4;" vertex="1" parent="265">
                    <mxGeometry y="110" width="470" height="40" as="geometry"/>
                </mxCell>
                <mxCell id="273" value="&lt;span style=&quot;&quot;&gt;192.168.0.0/16&lt;/span&gt;" style="shape=partialRectangle;html=1;whiteSpace=wrap;connectable=0;overflow=hidden;fillColor=none;top=0;left=0;bottom=0;right=0;pointerEvents=1;strokeColor=#000000;fontSize=18;fontColor=#000000;align=left;spacingLeft=4;" vertex="1" parent="272">
                    <mxGeometry width="160" height="40" as="geometry">
                        <mxRectangle width="160" height="40" as="alternateBounds"/>
                    </mxGeometry>
                </mxCell>
                <mxCell id="274" value="Inspection VPC Attachment" style="shape=partialRectangle;html=1;whiteSpace=wrap;connectable=0;overflow=hidden;fillColor=none;top=0;left=0;bottom=0;right=0;pointerEvents=1;strokeColor=#000000;fontSize=18;fontColor=#000000;align=left;spacingLeft=4;" vertex="1" parent="272">
                    <mxGeometry x="160" width="310" height="40" as="geometry">
                        <mxRectangle width="310" height="40" as="alternateBounds"/>
                    </mxGeometry>
                </mxCell>
                <mxCell id="275" style="shape=tableRow;horizontal=0;startSize=0;swimlaneHead=0;swimlaneBody=0;top=0;left=0;bottom=0;right=0;collapsible=0;dropTarget=0;fillColor=none;points=[[0,0.5],[1,0.5]];portConstraint=eastwest;strokeColor=#000000;fontSize=18;fontColor=#000000;align=left;spacingLeft=4;" vertex="1" parent="265">
                    <mxGeometry y="150" width="470" height="40" as="geometry"/>
                </mxCell>
                <mxCell id="276" value="0.0.0.0/0" style="shape=partialRectangle;html=1;whiteSpace=wrap;connectable=0;overflow=hidden;fillColor=none;top=0;left=0;bottom=0;right=0;pointerEvents=1;strokeColor=#000000;fontSize=18;fontColor=#000000;align=left;spacingLeft=4;" vertex="1" parent="275">
                    <mxGeometry width="160" height="40" as="geometry">
                        <mxRectangle width="160" height="40" as="alternateBounds"/>
                    </mxGeometry>
                </mxCell>
                <mxCell id="277" value="Central Egress VPC Attachment" style="shape=partialRectangle;html=1;whiteSpace=wrap;connectable=0;overflow=hidden;fillColor=none;top=0;left=0;bottom=0;right=0;pointerEvents=1;strokeColor=#000000;fontSize=18;fontColor=#000000;align=left;spacingLeft=4;" vertex="1" parent="275">
                    <mxGeometry x="160" width="310" height="40" as="geometry">
                        <mxRectangle width="310" height="40" as="alternateBounds"/>
                    </mxGeometry>
                </mxCell>
                <mxCell id="278" value="Workload VPC B  Route Table" style="shape=table;startSize=30;container=1;collapsible=0;childLayout=tableLayout;strokeColor=#000000;fontSize=18;fontColor=#FFFFFF;fillColor=#9933FF;" vertex="1" parent="1">
                    <mxGeometry x="590" y="1810" width="470" height="190" as="geometry"/>
                </mxCell>
                <mxCell id="279" style="shape=tableRow;horizontal=0;startSize=0;swimlaneHead=0;swimlaneBody=0;top=0;left=0;bottom=0;right=0;collapsible=0;dropTarget=0;fillColor=none;points=[[0,0.5],[1,0.5]];portConstraint=eastwest;strokeColor=#000000;fontSize=18;fontColor=#009900;" vertex="1" parent="278">
                    <mxGeometry y="30" width="470" height="40" as="geometry"/>
                </mxCell>
                <mxCell id="280" value="CIDR" style="shape=partialRectangle;html=1;whiteSpace=wrap;connectable=0;overflow=hidden;fillColor=none;top=0;left=0;bottom=0;right=0;pointerEvents=1;strokeColor=#000000;fontSize=18;fontColor=#000000;fontStyle=3" vertex="1" parent="279">
                    <mxGeometry width="160" height="40" as="geometry">
                        <mxRectangle width="160" height="40" as="alternateBounds"/>
                    </mxGeometry>
                </mxCell>
                <mxCell id="281" value="Attachment" style="shape=partialRectangle;html=1;whiteSpace=wrap;connectable=0;overflow=hidden;fillColor=none;top=0;left=0;bottom=0;right=0;pointerEvents=1;strokeColor=#000000;fontSize=18;fontColor=#000000;fontStyle=3" vertex="1" parent="279">
                    <mxGeometry x="160" width="310" height="40" as="geometry">
                        <mxRectangle width="310" height="40" as="alternateBounds"/>
                    </mxGeometry>
                </mxCell>
                <mxCell id="282" value="" style="shape=tableRow;horizontal=0;startSize=0;swimlaneHead=0;swimlaneBody=0;top=0;left=0;bottom=0;right=0;collapsible=0;dropTarget=0;fillColor=none;points=[[0,0.5],[1,0.5]];portConstraint=eastwest;strokeColor=#000000;fontSize=18;fontColor=#009900;align=left;spacingLeft=4;" vertex="1" parent="278">
                    <mxGeometry y="70" width="470" height="40" as="geometry"/>
                </mxCell>
                <mxCell id="283" value="&lt;span style=&quot;color: rgb(0, 0, 0); font-size: 18px;&quot;&gt;10.0.0.0/8&lt;/span&gt;" style="shape=partialRectangle;html=1;whiteSpace=wrap;connectable=0;overflow=hidden;fillColor=none;top=0;left=0;bottom=0;right=0;pointerEvents=1;strokeColor=#000000;fontSize=18;fontColor=#009900;align=left;spacingLeft=4;" vertex="1" parent="282">
                    <mxGeometry width="160" height="40" as="geometry">
                        <mxRectangle width="160" height="40" as="alternateBounds"/>
                    </mxGeometry>
                </mxCell>
                <mxCell id="284" value="&lt;span style=&quot;color: rgb(0, 0, 0);&quot;&gt;Inspection VPC Attachment&lt;/span&gt;" style="shape=partialRectangle;html=1;whiteSpace=wrap;connectable=0;overflow=hidden;fillColor=none;top=0;left=0;bottom=0;right=0;pointerEvents=1;strokeColor=#000000;fontSize=18;fontColor=#009900;align=left;spacingLeft=4;" vertex="1" parent="282">
                    <mxGeometry x="160" width="310" height="40" as="geometry">
                        <mxRectangle width="310" height="40" as="alternateBounds"/>
                    </mxGeometry>
                </mxCell>
                <mxCell id="285" style="shape=tableRow;horizontal=0;startSize=0;swimlaneHead=0;swimlaneBody=0;top=0;left=0;bottom=0;right=0;collapsible=0;dropTarget=0;fillColor=none;points=[[0,0.5],[1,0.5]];portConstraint=eastwest;strokeColor=#000000;fontSize=18;fontColor=#000000;align=left;spacingLeft=4;" vertex="1" parent="278">
                    <mxGeometry y="110" width="470" height="40" as="geometry"/>
                </mxCell>
                <mxCell id="286" value="&lt;span style=&quot;&quot;&gt;192.168.0.0/16&lt;/span&gt;" style="shape=partialRectangle;html=1;whiteSpace=wrap;connectable=0;overflow=hidden;fillColor=none;top=0;left=0;bottom=0;right=0;pointerEvents=1;strokeColor=#000000;fontSize=18;fontColor=#000000;align=left;spacingLeft=4;" vertex="1" parent="285">
                    <mxGeometry width="160" height="40" as="geometry">
                        <mxRectangle width="160" height="40" as="alternateBounds"/>
                    </mxGeometry>
                </mxCell>
                <mxCell id="287" value="Inspection VPC Attachment" style="shape=partialRectangle;html=1;whiteSpace=wrap;connectable=0;overflow=hidden;fillColor=none;top=0;left=0;bottom=0;right=0;pointerEvents=1;strokeColor=#000000;fontSize=18;fontColor=#000000;align=left;spacingLeft=4;" vertex="1" parent="285">
                    <mxGeometry x="160" width="310" height="40" as="geometry">
                        <mxRectangle width="310" height="40" as="alternateBounds"/>
                    </mxGeometry>
                </mxCell>
                <mxCell id="288" style="shape=tableRow;horizontal=0;startSize=0;swimlaneHead=0;swimlaneBody=0;top=0;left=0;bottom=0;right=0;collapsible=0;dropTarget=0;fillColor=none;points=[[0,0.5],[1,0.5]];portConstraint=eastwest;strokeColor=#000000;fontSize=18;fontColor=#000000;align=left;spacingLeft=4;" vertex="1" parent="278">
                    <mxGeometry y="150" width="470" height="40" as="geometry"/>
                </mxCell>
                <mxCell id="289" value="0.0.0.0/0" style="shape=partialRectangle;html=1;whiteSpace=wrap;connectable=0;overflow=hidden;fillColor=none;top=0;left=0;bottom=0;right=0;pointerEvents=1;strokeColor=#000000;fontSize=18;fontColor=#000000;align=left;spacingLeft=4;" vertex="1" parent="288">
                    <mxGeometry width="160" height="40" as="geometry">
                        <mxRectangle width="160" height="40" as="alternateBounds"/>
                    </mxGeometry>
                </mxCell>
                <mxCell id="290" value="Central Egress VPC Attachment" style="shape=partialRectangle;html=1;whiteSpace=wrap;connectable=0;overflow=hidden;fillColor=none;top=0;left=0;bottom=0;right=0;pointerEvents=1;strokeColor=#000000;fontSize=18;fontColor=#000000;align=left;spacingLeft=4;" vertex="1" parent="288">
                    <mxGeometry x="160" width="310" height="40" as="geometry">
                        <mxRectangle width="310" height="40" as="alternateBounds"/>
                    </mxGeometry>
                </mxCell>
                <mxCell id="291" style="edgeStyle=orthogonalEdgeStyle;html=1;strokeColor=#9933FF;strokeWidth=4;fontSize=18;fontColor=#000000;startArrow=none;startFill=0;endArrow=none;endFill=0;sourcePerimeterSpacing=35;targetPerimeterSpacing=5;" edge="1" parent="1" source="14" target="154">
                    <mxGeometry relative="1" as="geometry">
                        <Array as="points">
                            <mxPoint x="441" y="1150"/>
                            <mxPoint x="580" y="1150"/>
                        </Array>
                    </mxGeometry>
                </mxCell>
                <mxCell id="292" style="edgeStyle=orthogonalEdgeStyle;html=1;strokeColor=#9933FF;strokeWidth=4;fontSize=18;fontColor=#000000;startArrow=none;startFill=0;endArrow=oval;endFill=1;sourcePerimeterSpacing=35;targetPerimeterSpacing=0;endSize=20;" edge="1" parent="1" source="13" target="154">
                    <mxGeometry relative="1" as="geometry">
                        <Array as="points">
                            <mxPoint x="720" y="1150"/>
                            <mxPoint x="580" y="1150"/>
                        </Array>
                    </mxGeometry>
                </mxCell>
                <mxCell id="293" style="edgeStyle=orthogonalEdgeStyle;html=1;strokeColor=#9933FF;strokeWidth=4;fontSize=18;fontColor=#000000;startArrow=none;startFill=0;endArrow=classic;endFill=1;sourcePerimeterSpacing=5;targetPerimeterSpacing=35;endSize=10;" edge="1" parent="1" source="154" target="64">
                    <mxGeometry relative="1" as="geometry">
                        <Array as="points">
                            <mxPoint x="1611" y="1330"/>
                        </Array>
                    </mxGeometry>
                </mxCell>
                <mxCell id="294" style="edgeStyle=orthogonalEdgeStyle;html=1;strokeColor=#9933FF;strokeWidth=4;fontSize=18;fontColor=#000000;startArrow=oval;startFill=1;endArrow=classic;endFill=1;sourcePerimeterSpacing=0;targetPerimeterSpacing=35;startSize=20;endSize=10;" edge="1" parent="1" source="154" target="66">
                    <mxGeometry relative="1" as="geometry">
                        <Array as="points">
                            <mxPoint x="1891" y="1330"/>
                        </Array>
                    </mxGeometry>
                </mxCell>
                <mxCell id="295" value="Availability Zone C" style="fillColor=none;strokeColor=#147EBA;dashed=1;verticalAlign=top;fontStyle=0;fontColor=#147EBA;fontSize=16;" vertex="1" parent="1">
                    <mxGeometry x="1761" y="1464" width="270" height="500" as="geometry"/>
                </mxCell>
                <mxCell id="301" value="Firewall subnet&amp;nbsp;(10.2.2.0/24)" style="points=[[0,0],[0.25,0],[0.5,0],[0.75,0],[1,0],[1,0.25],[1,0.5],[1,0.75],[1,1],[0.75,1],[0.5,1],[0.25,1],[0,1],[0,0.75],[0,0.5],[0,0.25]];outlineConnect=0;gradientColor=none;html=1;whiteSpace=wrap;fontSize=16;fontStyle=0;container=1;pointerEvents=0;collapsible=0;recursiveResize=0;shape=mxgraph.aws4.group;grIcon=mxgraph.aws4.group_security_group;grStroke=0;strokeColor=#147EBA;fillColor=#E6F2F8;verticalAlign=top;align=left;spacingLeft=30;fontColor=#147EBA;dashed=0;" vertex="1" parent="1">
                    <mxGeometry x="1491" y="1504" width="240" height="200" as="geometry"/>
                </mxCell>
                <mxCell id="302" value="Network Firewall" style="sketch=0;outlineConnect=0;fontColor=#232F3E;gradientColor=none;fillColor=#BF0816;strokeColor=none;dashed=0;verticalLabelPosition=bottom;verticalAlign=top;align=center;html=1;fontSize=16;fontStyle=1;aspect=fixed;pointerEvents=1;shape=mxgraph.aws4.network_firewall_endpoints;" vertex="1" parent="301">
                    <mxGeometry x="82" y="66" width="78" height="78" as="geometry"/>
                </mxCell>
                <mxCell id="303" value="Firewall subnet&amp;nbsp;(10.2.3.0/24)" style="points=[[0,0],[0.25,0],[0.5,0],[0.75,0],[1,0],[1,0.25],[1,0.5],[1,0.75],[1,1],[0.75,1],[0.5,1],[0.25,1],[0,1],[0,0.75],[0,0.5],[0,0.25]];outlineConnect=0;gradientColor=none;html=1;whiteSpace=wrap;fontSize=16;fontStyle=0;container=1;pointerEvents=0;collapsible=0;recursiveResize=0;shape=mxgraph.aws4.group;grIcon=mxgraph.aws4.group_security_group;grStroke=0;strokeColor=#147EBA;fillColor=#E6F2F8;verticalAlign=top;align=left;spacingLeft=30;fontColor=#147EBA;dashed=0;" vertex="1" parent="1">
                    <mxGeometry x="1771" y="1504" width="240" height="200" as="geometry"/>
                </mxCell>
                <mxCell id="304" value="Network Firewall" style="sketch=0;outlineConnect=0;fontColor=#232F3E;gradientColor=none;fillColor=#BF0816;strokeColor=none;dashed=0;verticalLabelPosition=bottom;verticalAlign=top;align=center;html=1;fontSize=16;fontStyle=1;aspect=fixed;pointerEvents=1;shape=mxgraph.aws4.network_firewall_endpoints;" vertex="1" parent="303">
                    <mxGeometry x="82" y="66" width="78" height="78" as="geometry"/>
                </mxCell>
                <mxCell id="305" value="TGW subnet&amp;nbsp;(10.5.0.64/28)" style="points=[[0,0],[0.25,0],[0.5,0],[0.75,0],[1,0],[1,0.25],[1,0.5],[1,0.75],[1,1],[0.75,1],[0.5,1],[0.25,1],[0,1],[0,0.75],[0,0.5],[0,0.25]];outlineConnect=0;gradientColor=none;html=1;whiteSpace=wrap;fontSize=16;fontStyle=0;container=1;pointerEvents=0;collapsible=0;recursiveResize=0;shape=mxgraph.aws4.group;grIcon=mxgraph.aws4.group_security_group;grStroke=0;strokeColor=#147EBA;fillColor=#E6F2F8;verticalAlign=top;align=left;spacingLeft=30;fontColor=#147EBA;dashed=0;" vertex="1" parent="1">
                    <mxGeometry x="1491" y="1744" width="240" height="200" as="geometry"/>
                </mxCell>
                <mxCell id="306" value="Transit Gateway ENI" style="sketch=0;outlineConnect=0;fontColor=#232F3E;gradientColor=none;fillColor=#4D27AA;strokeColor=none;dashed=0;verticalLabelPosition=bottom;verticalAlign=top;align=center;html=1;fontSize=16;fontStyle=1;aspect=fixed;pointerEvents=1;shape=mxgraph.aws4.elastic_network_interface;" vertex="1" parent="305">
                    <mxGeometry x="82" y="60" width="78" height="78" as="geometry"/>
                </mxCell>
                <mxCell id="307" value="TGW subnet&amp;nbsp;(10.5.0.80/28)" style="points=[[0,0],[0.25,0],[0.5,0],[0.75,0],[1,0],[1,0.25],[1,0.5],[1,0.75],[1,1],[0.75,1],[0.5,1],[0.25,1],[0,1],[0,0.75],[0,0.5],[0,0.25]];outlineConnect=0;gradientColor=none;html=1;whiteSpace=wrap;fontSize=16;fontStyle=0;container=1;pointerEvents=0;collapsible=0;recursiveResize=0;shape=mxgraph.aws4.group;grIcon=mxgraph.aws4.group_security_group;grStroke=0;strokeColor=#147EBA;fillColor=#E6F2F8;verticalAlign=top;align=left;spacingLeft=30;fontColor=#147EBA;dashed=0;" vertex="1" parent="1">
                    <mxGeometry x="1771" y="1744" width="240" height="200" as="geometry"/>
                </mxCell>
                <mxCell id="308" value="Transit Gateway ENI" style="sketch=0;outlineConnect=0;fontColor=#232F3E;gradientColor=none;fillColor=#4D27AA;strokeColor=none;dashed=0;verticalLabelPosition=bottom;verticalAlign=top;align=center;html=1;fontSize=16;fontStyle=1;aspect=fixed;pointerEvents=1;shape=mxgraph.aws4.elastic_network_interface;" vertex="1" parent="307">
                    <mxGeometry x="82" y="60" width="78" height="78" as="geometry"/>
                </mxCell>
                <mxCell id="309" style="edgeStyle=orthogonalEdgeStyle;html=1;strokeColor=#9933FF;strokeWidth=4;fontSize=16;fontColor=#FFFFFF;sourcePerimeterSpacing=35;targetPerimeterSpacing=15;startArrow=classic;startFill=1;endArrow=none;endFill=0;endSize=10;startSize=10;" edge="1" parent="1" source="302" target="306">
                    <mxGeometry relative="1" as="geometry"/>
                </mxCell>
                <mxCell id="310" style="edgeStyle=orthogonalEdgeStyle;html=1;strokeColor=#9933FF;strokeWidth=4;fontSize=16;fontColor=#FFFFFF;sourcePerimeterSpacing=35;targetPerimeterSpacing=15;endArrow=none;endFill=0;startArrow=classic;startFill=1;endSize=10;startSize=10;" edge="1" parent="1" source="304" target="308">
                    <mxGeometry relative="1" as="geometry"/>
                </mxCell>
                <mxCell id="313" value="Inspection VPC (10.2.0.0/16, 10.5.0.64/27)" style="points=[[0,0],[0.25,0],[0.5,0],[0.75,0],[1,0],[1,0.25],[1,0.5],[1,0.75],[1,1],[0.75,1],[0.5,1],[0.25,1],[0,1],[0,0.75],[0,0.5],[0,0.25]];outlineConnect=0;gradientColor=none;html=1;whiteSpace=wrap;fontSize=20;fontStyle=1;container=1;pointerEvents=0;collapsible=0;recursiveResize=0;shape=mxgraph.aws4.group;grIcon=mxgraph.aws4.group_vpc;strokeColor=#248814;fillColor=none;verticalAlign=top;align=left;spacingLeft=30;fontColor=#009900;dashed=0;strokeWidth=2;" vertex="1" parent="1">
                    <mxGeometry x="1451" y="1414" width="600" height="570" as="geometry"/>
                </mxCell>
                <mxCell id="343" value="Inspection Firewall Route Table" style="shape=table;startSize=30;container=1;collapsible=0;childLayout=tableLayout;fontSize=16;fillColor=#9933FF;strokeColor=#000000;fontColor=#FFFFFF;" vertex="1" parent="1">
                    <mxGeometry x="2071" y="1504" width="290" height="150" as="geometry"/>
                </mxCell>
                <mxCell id="344" style="shape=tableRow;horizontal=0;startSize=0;swimlaneHead=0;swimlaneBody=0;top=0;left=0;bottom=0;right=0;collapsible=0;dropTarget=0;fillColor=none;points=[[0,0.5],[1,0.5]];portConstraint=eastwest;fontSize=18;" vertex="1" parent="343">
                    <mxGeometry y="30" width="290" height="40" as="geometry"/>
                </mxCell>
                <mxCell id="345" value="&lt;span style=&quot;font-style: italic; font-weight: 700;&quot;&gt;Destination&lt;/span&gt;" style="shape=partialRectangle;html=1;whiteSpace=wrap;connectable=0;overflow=hidden;fillColor=none;top=0;left=0;bottom=0;right=0;pointerEvents=1;fontSize=18;" vertex="1" parent="344">
                    <mxGeometry width="145" height="40" as="geometry">
                        <mxRectangle width="145" height="40" as="alternateBounds"/>
                    </mxGeometry>
                </mxCell>
                <mxCell id="346" value="&lt;span style=&quot;font-style: italic; font-weight: 700;&quot;&gt;Target&lt;/span&gt;" style="shape=partialRectangle;html=1;whiteSpace=wrap;connectable=0;overflow=hidden;fillColor=none;top=0;left=0;bottom=0;right=0;pointerEvents=1;fontSize=18;" vertex="1" parent="344">
                    <mxGeometry x="145" width="145" height="40" as="geometry">
                        <mxRectangle width="145" height="40" as="alternateBounds"/>
                    </mxGeometry>
                </mxCell>
                <mxCell id="350" value="" style="shape=tableRow;horizontal=0;startSize=0;swimlaneHead=0;swimlaneBody=0;top=0;left=0;bottom=0;right=0;collapsible=0;dropTarget=0;fillColor=none;points=[[0,0.5],[1,0.5]];portConstraint=eastwest;fontSize=18;" vertex="1" parent="343">
                    <mxGeometry y="70" width="290" height="40" as="geometry"/>
                </mxCell>
                <mxCell id="351" value="0.0.0.0/0" style="shape=partialRectangle;html=1;whiteSpace=wrap;connectable=0;overflow=hidden;fillColor=none;top=0;left=0;bottom=0;right=0;pointerEvents=1;fontSize=18;" vertex="1" parent="350">
                    <mxGeometry width="145" height="40" as="geometry">
                        <mxRectangle width="145" height="40" as="alternateBounds"/>
                    </mxGeometry>
                </mxCell>
                <mxCell id="352" value="tgw-id" style="shape=partialRectangle;html=1;whiteSpace=wrap;connectable=0;overflow=hidden;fillColor=none;top=0;left=0;bottom=0;right=0;pointerEvents=1;fontSize=18;" vertex="1" parent="350">
                    <mxGeometry x="145" width="145" height="40" as="geometry">
                        <mxRectangle width="145" height="40" as="alternateBounds"/>
                    </mxGeometry>
                </mxCell>
                <mxCell id="353" value="" style="shape=tableRow;horizontal=0;startSize=0;swimlaneHead=0;swimlaneBody=0;top=0;left=0;bottom=0;right=0;collapsible=0;dropTarget=0;fillColor=none;points=[[0,0.5],[1,0.5]];portConstraint=eastwest;fontSize=18;" vertex="1" parent="343">
                    <mxGeometry y="110" width="290" height="40" as="geometry"/>
                </mxCell>
                <mxCell id="354" value="10.2.0.0/16" style="shape=partialRectangle;html=1;whiteSpace=wrap;connectable=0;overflow=hidden;fillColor=none;top=0;left=0;bottom=0;right=0;pointerEvents=1;fontSize=18;" vertex="1" parent="353">
                    <mxGeometry width="145" height="40" as="geometry">
                        <mxRectangle width="145" height="40" as="alternateBounds"/>
                    </mxGeometry>
                </mxCell>
                <mxCell id="355" value="local" style="shape=partialRectangle;html=1;whiteSpace=wrap;connectable=0;overflow=hidden;fillColor=none;top=0;left=0;bottom=0;right=0;pointerEvents=1;fontSize=18;" vertex="1" parent="353">
                    <mxGeometry x="145" width="145" height="40" as="geometry">
                        <mxRectangle width="145" height="40" as="alternateBounds"/>
                    </mxGeometry>
                </mxCell>
                <mxCell id="356" value="Inspection Firewall Route Table" style="shape=table;startSize=30;container=1;collapsible=0;childLayout=tableLayout;fontSize=16;fillColor=#9933FF;strokeColor=#000000;fontColor=#FFFFFF;" vertex="1" parent="1">
                    <mxGeometry x="1150" y="1504" width="280" height="150" as="geometry"/>
                </mxCell>
                <mxCell id="357" style="shape=tableRow;horizontal=0;startSize=0;swimlaneHead=0;swimlaneBody=0;top=0;left=0;bottom=0;right=0;collapsible=0;dropTarget=0;fillColor=none;points=[[0,0.5],[1,0.5]];portConstraint=eastwest;fontSize=18;" vertex="1" parent="356">
                    <mxGeometry y="30" width="280" height="40" as="geometry"/>
                </mxCell>
                <mxCell id="358" value="&lt;span style=&quot;font-style: italic; font-weight: 700;&quot;&gt;Destination&lt;/span&gt;" style="shape=partialRectangle;html=1;whiteSpace=wrap;connectable=0;overflow=hidden;fillColor=none;top=0;left=0;bottom=0;right=0;pointerEvents=1;fontSize=18;" vertex="1" parent="357">
                    <mxGeometry width="140" height="40" as="geometry">
                        <mxRectangle width="140" height="40" as="alternateBounds"/>
                    </mxGeometry>
                </mxCell>
                <mxCell id="359" value="&lt;span style=&quot;font-style: italic; font-weight: 700;&quot;&gt;Target&lt;/span&gt;" style="shape=partialRectangle;html=1;whiteSpace=wrap;connectable=0;overflow=hidden;fillColor=none;top=0;left=0;bottom=0;right=0;pointerEvents=1;fontSize=18;" vertex="1" parent="357">
                    <mxGeometry x="140" width="140" height="40" as="geometry">
                        <mxRectangle width="140" height="40" as="alternateBounds"/>
                    </mxGeometry>
                </mxCell>
                <mxCell id="363" value="" style="shape=tableRow;horizontal=0;startSize=0;swimlaneHead=0;swimlaneBody=0;top=0;left=0;bottom=0;right=0;collapsible=0;dropTarget=0;fillColor=none;points=[[0,0.5],[1,0.5]];portConstraint=eastwest;fontSize=18;" vertex="1" parent="356">
                    <mxGeometry y="70" width="280" height="40" as="geometry"/>
                </mxCell>
                <mxCell id="364" value="0.0.0.0/0" style="shape=partialRectangle;html=1;whiteSpace=wrap;connectable=0;overflow=hidden;fillColor=none;top=0;left=0;bottom=0;right=0;pointerEvents=1;fontSize=18;" vertex="1" parent="363">
                    <mxGeometry width="140" height="40" as="geometry">
                        <mxRectangle width="140" height="40" as="alternateBounds"/>
                    </mxGeometry>
                </mxCell>
                <mxCell id="365" value="tgw-id" style="shape=partialRectangle;html=1;whiteSpace=wrap;connectable=0;overflow=hidden;fillColor=none;top=0;left=0;bottom=0;right=0;pointerEvents=1;fontSize=18;" vertex="1" parent="363">
                    <mxGeometry x="140" width="140" height="40" as="geometry">
                        <mxRectangle width="140" height="40" as="alternateBounds"/>
                    </mxGeometry>
                </mxCell>
                <mxCell id="366" value="" style="shape=tableRow;horizontal=0;startSize=0;swimlaneHead=0;swimlaneBody=0;top=0;left=0;bottom=0;right=0;collapsible=0;dropTarget=0;fillColor=none;points=[[0,0.5],[1,0.5]];portConstraint=eastwest;fontSize=18;" vertex="1" parent="356">
                    <mxGeometry y="110" width="280" height="40" as="geometry"/>
                </mxCell>
                <mxCell id="367" value="10.1.0.0/16" style="shape=partialRectangle;html=1;whiteSpace=wrap;connectable=0;overflow=hidden;fillColor=none;top=0;left=0;bottom=0;right=0;pointerEvents=1;fontSize=18;" vertex="1" parent="366">
                    <mxGeometry width="140" height="40" as="geometry">
                        <mxRectangle width="140" height="40" as="alternateBounds"/>
                    </mxGeometry>
                </mxCell>
                <mxCell id="368" value="local" style="shape=partialRectangle;html=1;whiteSpace=wrap;connectable=0;overflow=hidden;fillColor=none;top=0;left=0;bottom=0;right=0;pointerEvents=1;fontSize=18;" vertex="1" parent="366">
                    <mxGeometry x="140" width="140" height="40" as="geometry">
                        <mxRectangle width="140" height="40" as="alternateBounds"/>
                    </mxGeometry>
                </mxCell>
                <mxCell id="369" value="Inspection TGW Route Table" style="shape=table;startSize=30;container=1;collapsible=0;childLayout=tableLayout;fontSize=16;fillColor=#9933FF;strokeColor=#000000;fontColor=#FFFFFF;" vertex="1" parent="1">
                    <mxGeometry x="1150" y="1744" width="280" height="150" as="geometry"/>
                </mxCell>
                <mxCell id="370" style="shape=tableRow;horizontal=0;startSize=0;swimlaneHead=0;swimlaneBody=0;top=0;left=0;bottom=0;right=0;collapsible=0;dropTarget=0;fillColor=none;points=[[0,0.5],[1,0.5]];portConstraint=eastwest;fontSize=18;" vertex="1" parent="369">
                    <mxGeometry y="30" width="280" height="40" as="geometry"/>
                </mxCell>
                <mxCell id="371" value="&lt;span style=&quot;font-style: italic; font-weight: 700;&quot;&gt;Destination&lt;/span&gt;" style="shape=partialRectangle;html=1;whiteSpace=wrap;connectable=0;overflow=hidden;fillColor=none;top=0;left=0;bottom=0;right=0;pointerEvents=1;fontSize=18;" vertex="1" parent="370">
                    <mxGeometry width="140" height="40" as="geometry">
                        <mxRectangle width="140" height="40" as="alternateBounds"/>
                    </mxGeometry>
                </mxCell>
                <mxCell id="372" value="&lt;span style=&quot;font-style: italic; font-weight: 700;&quot;&gt;Target&lt;/span&gt;" style="shape=partialRectangle;html=1;whiteSpace=wrap;connectable=0;overflow=hidden;fillColor=none;top=0;left=0;bottom=0;right=0;pointerEvents=1;fontSize=18;" vertex="1" parent="370">
                    <mxGeometry x="140" width="140" height="40" as="geometry">
                        <mxRectangle width="140" height="40" as="alternateBounds"/>
                    </mxGeometry>
                </mxCell>
                <mxCell id="373" value="" style="shape=tableRow;horizontal=0;startSize=0;swimlaneHead=0;swimlaneBody=0;top=0;left=0;bottom=0;right=0;collapsible=0;dropTarget=0;fillColor=none;points=[[0,0.5],[1,0.5]];portConstraint=eastwest;fontSize=18;" vertex="1" parent="369">
                    <mxGeometry y="70" width="280" height="40" as="geometry"/>
                </mxCell>
                <mxCell id="374" value="0.0.0.0/0" style="shape=partialRectangle;html=1;whiteSpace=wrap;connectable=0;overflow=hidden;fillColor=none;top=0;left=0;bottom=0;right=0;pointerEvents=1;fontSize=18;" vertex="1" parent="373">
                    <mxGeometry width="140" height="40" as="geometry">
                        <mxRectangle width="140" height="40" as="alternateBounds"/>
                    </mxGeometry>
                </mxCell>
                <mxCell id="375" value="vpce-id-az-a" style="shape=partialRectangle;html=1;whiteSpace=wrap;connectable=0;overflow=hidden;fillColor=none;top=0;left=0;bottom=0;right=0;pointerEvents=1;fontSize=18;" vertex="1" parent="373">
                    <mxGeometry x="140" width="140" height="40" as="geometry">
                        <mxRectangle width="140" height="40" as="alternateBounds"/>
                    </mxGeometry>
                </mxCell>
                <mxCell id="379" value="" style="shape=tableRow;horizontal=0;startSize=0;swimlaneHead=0;swimlaneBody=0;top=0;left=0;bottom=0;right=0;collapsible=0;dropTarget=0;fillColor=none;points=[[0,0.5],[1,0.5]];portConstraint=eastwest;fontSize=18;" vertex="1" parent="369">
                    <mxGeometry y="110" width="280" height="40" as="geometry"/>
                </mxCell>
                <mxCell id="380" value="10.2.0.0/16" style="shape=partialRectangle;html=1;whiteSpace=wrap;connectable=0;overflow=hidden;fillColor=none;top=0;left=0;bottom=0;right=0;pointerEvents=1;fontSize=18;" vertex="1" parent="379">
                    <mxGeometry width="140" height="40" as="geometry">
                        <mxRectangle width="140" height="40" as="alternateBounds"/>
                    </mxGeometry>
                </mxCell>
                <mxCell id="381" value="local" style="shape=partialRectangle;html=1;whiteSpace=wrap;connectable=0;overflow=hidden;fillColor=none;top=0;left=0;bottom=0;right=0;pointerEvents=1;fontSize=18;" vertex="1" parent="379">
                    <mxGeometry x="140" width="140" height="40" as="geometry">
                        <mxRectangle width="140" height="40" as="alternateBounds"/>
                    </mxGeometry>
                </mxCell>
                <mxCell id="382" value="Inspection TGW Route Table" style="shape=table;startSize=30;container=1;collapsible=0;childLayout=tableLayout;fontSize=16;fillColor=#9933FF;strokeColor=#000000;fontColor=#FFFFFF;" vertex="1" parent="1">
                    <mxGeometry x="2071" y="1744" width="290" height="150" as="geometry"/>
                </mxCell>
                <mxCell id="383" style="shape=tableRow;horizontal=0;startSize=0;swimlaneHead=0;swimlaneBody=0;top=0;left=0;bottom=0;right=0;collapsible=0;dropTarget=0;fillColor=none;points=[[0,0.5],[1,0.5]];portConstraint=eastwest;fontSize=18;" vertex="1" parent="382">
                    <mxGeometry y="30" width="290" height="40" as="geometry"/>
                </mxCell>
                <mxCell id="384" value="&lt;span style=&quot;font-style: italic; font-weight: 700;&quot;&gt;Destination&lt;/span&gt;" style="shape=partialRectangle;html=1;whiteSpace=wrap;connectable=0;overflow=hidden;fillColor=none;top=0;left=0;bottom=0;right=0;pointerEvents=1;fontSize=18;" vertex="1" parent="383">
                    <mxGeometry width="145" height="40" as="geometry">
                        <mxRectangle width="145" height="40" as="alternateBounds"/>
                    </mxGeometry>
                </mxCell>
                <mxCell id="385" value="&lt;span style=&quot;font-style: italic; font-weight: 700;&quot;&gt;Target&lt;/span&gt;" style="shape=partialRectangle;html=1;whiteSpace=wrap;connectable=0;overflow=hidden;fillColor=none;top=0;left=0;bottom=0;right=0;pointerEvents=1;fontSize=18;" vertex="1" parent="383">
                    <mxGeometry x="145" width="145" height="40" as="geometry">
                        <mxRectangle width="145" height="40" as="alternateBounds"/>
                    </mxGeometry>
                </mxCell>
                <mxCell id="386" value="" style="shape=tableRow;horizontal=0;startSize=0;swimlaneHead=0;swimlaneBody=0;top=0;left=0;bottom=0;right=0;collapsible=0;dropTarget=0;fillColor=none;points=[[0,0.5],[1,0.5]];portConstraint=eastwest;fontSize=18;" vertex="1" parent="382">
                    <mxGeometry y="70" width="290" height="40" as="geometry"/>
                </mxCell>
                <mxCell id="387" value="0.0.0.0/0" style="shape=partialRectangle;html=1;whiteSpace=wrap;connectable=0;overflow=hidden;fillColor=none;top=0;left=0;bottom=0;right=0;pointerEvents=1;fontSize=18;" vertex="1" parent="386">
                    <mxGeometry width="145" height="40" as="geometry">
                        <mxRectangle width="145" height="40" as="alternateBounds"/>
                    </mxGeometry>
                </mxCell>
                <mxCell id="388" value="vpce-id-az-c" style="shape=partialRectangle;html=1;whiteSpace=wrap;connectable=0;overflow=hidden;fillColor=none;top=0;left=0;bottom=0;right=0;pointerEvents=1;fontSize=18;" vertex="1" parent="386">
                    <mxGeometry x="145" width="145" height="40" as="geometry">
                        <mxRectangle width="145" height="40" as="alternateBounds"/>
                    </mxGeometry>
                </mxCell>
                <mxCell id="392" value="" style="shape=tableRow;horizontal=0;startSize=0;swimlaneHead=0;swimlaneBody=0;top=0;left=0;bottom=0;right=0;collapsible=0;dropTarget=0;fillColor=none;points=[[0,0.5],[1,0.5]];portConstraint=eastwest;fontSize=18;" vertex="1" parent="382">
                    <mxGeometry y="110" width="290" height="40" as="geometry"/>
                </mxCell>
                <mxCell id="393" value="10.2.0.0/16" style="shape=partialRectangle;html=1;whiteSpace=wrap;connectable=0;overflow=hidden;fillColor=none;top=0;left=0;bottom=0;right=0;pointerEvents=1;fontSize=18;" vertex="1" parent="392">
                    <mxGeometry width="145" height="40" as="geometry">
                        <mxRectangle width="145" height="40" as="alternateBounds"/>
                    </mxGeometry>
                </mxCell>
                <mxCell id="394" value="local" style="shape=partialRectangle;html=1;whiteSpace=wrap;connectable=0;overflow=hidden;fillColor=none;top=0;left=0;bottom=0;right=0;pointerEvents=1;fontSize=18;" vertex="1" parent="392">
                    <mxGeometry x="145" width="145" height="40" as="geometry">
                        <mxRectangle width="145" height="40" as="alternateBounds"/>
                    </mxGeometry>
                </mxCell>
                <mxCell id="395" style="edgeStyle=orthogonalEdgeStyle;html=1;strokeColor=#9933FF;strokeWidth=4;fontSize=18;fontColor=#000000;startArrow=none;startFill=0;endArrow=classic;endFill=1;sourcePerimeterSpacing=15;targetPerimeterSpacing=0;endSize=20;" edge="1" parent="1" source="302">
                    <mxGeometry relative="1" as="geometry">
                        <mxPoint x="1120" y="1384" as="targetPoint"/>
                        <Array as="points">
                            <mxPoint x="1620" y="1384"/>
                        </Array>
                    </mxGeometry>
                </mxCell>
                <mxCell id="398" style="edgeStyle=orthogonalEdgeStyle;html=1;strokeColor=#9933FF;strokeWidth=4;fontSize=18;fontColor=#000000;startArrow=oval;startFill=1;endArrow=classic;endFill=1;sourcePerimeterSpacing=0;targetPerimeterSpacing=35;startSize=20;endSize=10;" edge="1" parent="1" target="306">
                    <mxGeometry relative="1" as="geometry">
                        <mxPoint x="1120" y="2034" as="sourcePoint"/>
                        <Array as="points">
                            <mxPoint x="1612" y="2034"/>
                        </Array>
                    </mxGeometry>
                </mxCell>
                <mxCell id="399" style="edgeStyle=orthogonalEdgeStyle;html=1;strokeColor=#9933FF;strokeWidth=4;fontSize=18;fontColor=#000000;startArrow=none;startFill=0;endArrow=classic;endFill=1;sourcePerimeterSpacing=35;targetPerimeterSpacing=35;startSize=10;endSize=10;" edge="1" parent="1" target="308">
                    <mxGeometry relative="1" as="geometry">
                        <mxPoint x="1146" y="2034" as="sourcePoint"/>
                        <Array as="points">
                            <mxPoint x="1892" y="2034"/>
                        </Array>
                    </mxGeometry>
                </mxCell>
                <mxCell id="438" value="Availability Zone A" style="fillColor=none;strokeColor=#147EBA;dashed=1;verticalAlign=top;fontStyle=0;fontColor=#147EBA;fontSize=16;" vertex="1" parent="1">
                    <mxGeometry x="830" y="2270" width="280" height="500" as="geometry"/>
                </mxCell>
                <mxCell id="441" value="TGW subnet&amp;nbsp;(10.5.0.96/28)" style="points=[[0,0],[0.25,0],[0.5,0],[0.75,0],[1,0],[1,0.25],[1,0.5],[1,0.75],[1,1],[0.75,1],[0.5,1],[0.25,1],[0,1],[0,0.75],[0,0.5],[0,0.25]];outlineConnect=0;gradientColor=none;html=1;whiteSpace=wrap;fontSize=16;fontStyle=0;container=1;pointerEvents=0;collapsible=0;recursiveResize=0;shape=mxgraph.aws4.group;grIcon=mxgraph.aws4.group_security_group;grStroke=0;strokeColor=#147EBA;fillColor=#E6F2F8;verticalAlign=top;align=left;spacingLeft=30;fontColor=#147EBA;dashed=0;" vertex="1" parent="1">
                    <mxGeometry x="850" y="2320" width="240" height="200" as="geometry"/>
                </mxCell>
                <mxCell id="442" value="Transit Gateway ENI" style="sketch=0;outlineConnect=0;fontColor=#232F3E;gradientColor=none;fillColor=#4D27AA;strokeColor=none;dashed=0;verticalLabelPosition=bottom;verticalAlign=top;align=center;html=1;fontSize=16;fontStyle=1;aspect=fixed;pointerEvents=1;shape=mxgraph.aws4.elastic_network_interface;" vertex="1" parent="441">
                    <mxGeometry x="82" y="60" width="78" height="78" as="geometry"/>
                </mxCell>
                <mxCell id="445" value="Worload VPC A Route Table" style="shape=table;startSize=30;container=1;collapsible=0;childLayout=tableLayout;fontSize=16;fillColor=#9933FF;strokeColor=#000000;fontColor=#FFFFFF;" vertex="1" parent="1">
                    <mxGeometry x="540" y="2310" width="230" height="150" as="geometry"/>
                </mxCell>
                <mxCell id="446" style="shape=tableRow;horizontal=0;startSize=0;swimlaneHead=0;swimlaneBody=0;top=0;left=0;bottom=0;right=0;collapsible=0;dropTarget=0;fillColor=none;points=[[0,0.5],[1,0.5]];portConstraint=eastwest;fontSize=18;" vertex="1" parent="445">
                    <mxGeometry y="30" width="230" height="40" as="geometry"/>
                </mxCell>
                <mxCell id="447" value="Destination" style="shape=partialRectangle;html=1;whiteSpace=wrap;connectable=0;overflow=hidden;fillColor=none;top=0;left=0;bottom=0;right=0;pointerEvents=1;fontSize=18;fontStyle=3" vertex="1" parent="446">
                    <mxGeometry width="115" height="40" as="geometry">
                        <mxRectangle width="115" height="40" as="alternateBounds"/>
                    </mxGeometry>
                </mxCell>
                <mxCell id="448" value="Target" style="shape=partialRectangle;html=1;whiteSpace=wrap;connectable=0;overflow=hidden;fillColor=none;top=0;left=0;bottom=0;right=0;pointerEvents=1;fontSize=18;fontStyle=3" vertex="1" parent="446">
                    <mxGeometry x="115" width="115" height="40" as="geometry">
                        <mxRectangle width="115" height="40" as="alternateBounds"/>
                    </mxGeometry>
                </mxCell>
                <mxCell id="449" value="" style="shape=tableRow;horizontal=0;startSize=0;swimlaneHead=0;swimlaneBody=0;top=0;left=0;bottom=0;right=0;collapsible=0;dropTarget=0;fillColor=none;points=[[0,0.5],[1,0.5]];portConstraint=eastwest;fontSize=18;" vertex="1" parent="445">
                    <mxGeometry y="70" width="230" height="40" as="geometry"/>
                </mxCell>
                <mxCell id="450" value="0.0.0.0/0" style="shape=partialRectangle;html=1;whiteSpace=wrap;connectable=0;overflow=hidden;fillColor=none;top=0;left=0;bottom=0;right=0;pointerEvents=1;fontSize=18;" vertex="1" parent="449">
                    <mxGeometry width="115" height="40" as="geometry">
                        <mxRectangle width="115" height="40" as="alternateBounds"/>
                    </mxGeometry>
                </mxCell>
                <mxCell id="451" value="tgw-id" style="shape=partialRectangle;html=1;whiteSpace=wrap;connectable=0;overflow=hidden;fillColor=none;top=0;left=0;bottom=0;right=0;pointerEvents=1;fontSize=18;" vertex="1" parent="449">
                    <mxGeometry x="115" width="115" height="40" as="geometry">
                        <mxRectangle width="115" height="40" as="alternateBounds"/>
                    </mxGeometry>
                </mxCell>
                <mxCell id="455" value="" style="shape=tableRow;horizontal=0;startSize=0;swimlaneHead=0;swimlaneBody=0;top=0;left=0;bottom=0;right=0;collapsible=0;dropTarget=0;fillColor=none;points=[[0,0.5],[1,0.5]];portConstraint=eastwest;fontSize=18;" vertex="1" parent="445">
                    <mxGeometry y="110" width="230" height="40" as="geometry"/>
                </mxCell>
                <mxCell id="456" value="10.3.0.0/16" style="shape=partialRectangle;html=1;whiteSpace=wrap;connectable=0;overflow=hidden;fillColor=none;top=0;left=0;bottom=0;right=0;pointerEvents=1;fontSize=18;" vertex="1" parent="455">
                    <mxGeometry width="115" height="40" as="geometry">
                        <mxRectangle width="115" height="40" as="alternateBounds"/>
                    </mxGeometry>
                </mxCell>
                <mxCell id="457" value="local" style="shape=partialRectangle;html=1;whiteSpace=wrap;connectable=0;overflow=hidden;fillColor=none;top=0;left=0;bottom=0;right=0;pointerEvents=1;fontSize=18;" vertex="1" parent="455">
                    <mxGeometry x="115" width="115" height="40" as="geometry">
                        <mxRectangle width="115" height="40" as="alternateBounds"/>
                    </mxGeometry>
                </mxCell>
                <mxCell id="458" value="Workload A VPC &lt;br&gt;(10.3.0.0/16, 10.5.0.96/28)" style="points=[[0,0],[0.25,0],[0.5,0],[0.75,0],[1,0],[1,0.25],[1,0.5],[1,0.75],[1,1],[0.75,1],[0.5,1],[0.25,1],[0,1],[0,0.75],[0,0.5],[0,0.25]];outlineConnect=0;gradientColor=none;html=1;whiteSpace=wrap;fontSize=20;fontStyle=1;container=1;pointerEvents=0;collapsible=0;recursiveResize=0;shape=mxgraph.aws4.group;grIcon=mxgraph.aws4.group_vpc;strokeColor=#248814;fillColor=none;verticalAlign=top;align=left;spacingLeft=30;fontColor=#009900;dashed=0;strokeWidth=2;" vertex="1" parent="1">
                    <mxGeometry x="810" y="2170" width="320" height="620" as="geometry"/>
                </mxCell>
                <mxCell id="469" value="Private subnet&amp;nbsp;(10.3.0.0/24)" style="points=[[0,0],[0.25,0],[0.5,0],[0.75,0],[1,0],[1,0.25],[1,0.5],[1,0.75],[1,1],[0.75,1],[0.5,1],[0.25,1],[0,1],[0,0.75],[0,0.5],[0,0.25]];outlineConnect=0;gradientColor=none;html=1;whiteSpace=wrap;fontSize=16;fontStyle=0;container=1;pointerEvents=0;collapsible=0;recursiveResize=0;shape=mxgraph.aws4.group;grIcon=mxgraph.aws4.group_security_group;grStroke=0;strokeColor=#147EBA;fillColor=#E6F2F8;verticalAlign=top;align=left;spacingLeft=30;fontColor=#147EBA;dashed=0;" vertex="1" parent="458">
                    <mxGeometry x="41" y="380" width="240" height="200" as="geometry"/>
                </mxCell>
                <mxCell id="499" value="EC2" style="sketch=0;points=[[0,0,0],[0.25,0,0],[0.5,0,0],[0.75,0,0],[1,0,0],[0,1,0],[0.25,1,0],[0.5,1,0],[0.75,1,0],[1,1,0],[0,0.25,0],[0,0.5,0],[0,0.75,0],[1,0.25,0],[1,0.5,0],[1,0.75,0]];outlineConnect=0;fontColor=#232F3E;gradientColor=#F78E04;gradientDirection=north;fillColor=#D05C17;strokeColor=#ffffff;dashed=0;verticalLabelPosition=bottom;verticalAlign=top;align=center;html=1;fontSize=16;fontStyle=1;aspect=fixed;shape=mxgraph.aws4.resourceIcon;resIcon=mxgraph.aws4.ec2;strokeWidth=3;" vertex="1" parent="469">
                    <mxGeometry x="80" y="72" width="78" height="78" as="geometry"/>
                </mxCell>
                <mxCell id="471" value="Availability Zone C" style="fillColor=none;strokeColor=#147EBA;dashed=1;verticalAlign=top;fontStyle=0;fontColor=#147EBA;fontSize=16;" vertex="1" parent="1">
                    <mxGeometry x="1565" y="2270" width="280" height="500" as="geometry"/>
                </mxCell>
                <mxCell id="472" value="TGW subnet&amp;nbsp;(10.5.0.108/28)" style="points=[[0,0],[0.25,0],[0.5,0],[0.75,0],[1,0],[1,0.25],[1,0.5],[1,0.75],[1,1],[0.75,1],[0.5,1],[0.25,1],[0,1],[0,0.75],[0,0.5],[0,0.25]];outlineConnect=0;gradientColor=none;html=1;whiteSpace=wrap;fontSize=16;fontStyle=0;container=1;pointerEvents=0;collapsible=0;recursiveResize=0;shape=mxgraph.aws4.group;grIcon=mxgraph.aws4.group_security_group;grStroke=0;strokeColor=#147EBA;fillColor=#E6F2F8;verticalAlign=top;align=left;spacingLeft=30;fontColor=#147EBA;dashed=0;" vertex="1" parent="1">
                    <mxGeometry x="1585" y="2320" width="240" height="200" as="geometry"/>
                </mxCell>
                <mxCell id="473" value="Transit Gateway ENI" style="sketch=0;outlineConnect=0;fontColor=#232F3E;gradientColor=none;fillColor=#4D27AA;strokeColor=none;dashed=0;verticalLabelPosition=bottom;verticalAlign=top;align=center;html=1;fontSize=16;fontStyle=1;aspect=fixed;pointerEvents=1;shape=mxgraph.aws4.elastic_network_interface;" vertex="1" parent="472">
                    <mxGeometry x="82" y="60" width="78" height="78" as="geometry"/>
                </mxCell>
                <mxCell id="474" value="Workload VPC B Route Table" style="shape=table;startSize=30;container=1;collapsible=0;childLayout=tableLayout;fontSize=16;fillColor=#9933FF;strokeColor=#000000;fontColor=#FFFFFF;" vertex="1" parent="1">
                    <mxGeometry x="1285" y="2310" width="230" height="150" as="geometry"/>
                </mxCell>
                <mxCell id="475" style="shape=tableRow;horizontal=0;startSize=0;swimlaneHead=0;swimlaneBody=0;top=0;left=0;bottom=0;right=0;collapsible=0;dropTarget=0;fillColor=none;points=[[0,0.5],[1,0.5]];portConstraint=eastwest;fontSize=18;" vertex="1" parent="474">
                    <mxGeometry y="30" width="230" height="40" as="geometry"/>
                </mxCell>
                <mxCell id="476" value="Destination" style="shape=partialRectangle;html=1;whiteSpace=wrap;connectable=0;overflow=hidden;fillColor=none;top=0;left=0;bottom=0;right=0;pointerEvents=1;fontSize=18;fontStyle=3" vertex="1" parent="475">
                    <mxGeometry width="115" height="40" as="geometry">
                        <mxRectangle width="115" height="40" as="alternateBounds"/>
                    </mxGeometry>
                </mxCell>
                <mxCell id="477" value="Target" style="shape=partialRectangle;html=1;whiteSpace=wrap;connectable=0;overflow=hidden;fillColor=none;top=0;left=0;bottom=0;right=0;pointerEvents=1;fontSize=18;fontStyle=3" vertex="1" parent="475">
                    <mxGeometry x="115" width="115" height="40" as="geometry">
                        <mxRectangle width="115" height="40" as="alternateBounds"/>
                    </mxGeometry>
                </mxCell>
                <mxCell id="478" value="" style="shape=tableRow;horizontal=0;startSize=0;swimlaneHead=0;swimlaneBody=0;top=0;left=0;bottom=0;right=0;collapsible=0;dropTarget=0;fillColor=none;points=[[0,0.5],[1,0.5]];portConstraint=eastwest;fontSize=18;" vertex="1" parent="474">
                    <mxGeometry y="70" width="230" height="40" as="geometry"/>
                </mxCell>
                <mxCell id="479" value="0.0.0.0/0" style="shape=partialRectangle;html=1;whiteSpace=wrap;connectable=0;overflow=hidden;fillColor=none;top=0;left=0;bottom=0;right=0;pointerEvents=1;fontSize=18;" vertex="1" parent="478">
                    <mxGeometry width="115" height="40" as="geometry">
                        <mxRectangle width="115" height="40" as="alternateBounds"/>
                    </mxGeometry>
                </mxCell>
                <mxCell id="480" value="tgw-id" style="shape=partialRectangle;html=1;whiteSpace=wrap;connectable=0;overflow=hidden;fillColor=none;top=0;left=0;bottom=0;right=0;pointerEvents=1;fontSize=18;" vertex="1" parent="478">
                    <mxGeometry x="115" width="115" height="40" as="geometry">
                        <mxRectangle width="115" height="40" as="alternateBounds"/>
                    </mxGeometry>
                </mxCell>
                <mxCell id="484" value="" style="shape=tableRow;horizontal=0;startSize=0;swimlaneHead=0;swimlaneBody=0;top=0;left=0;bottom=0;right=0;collapsible=0;dropTarget=0;fillColor=none;points=[[0,0.5],[1,0.5]];portConstraint=eastwest;fontSize=18;" vertex="1" parent="474">
                    <mxGeometry y="110" width="230" height="40" as="geometry"/>
                </mxCell>
                <mxCell id="485" value="10.4.0.0/16" style="shape=partialRectangle;html=1;whiteSpace=wrap;connectable=0;overflow=hidden;fillColor=none;top=0;left=0;bottom=0;right=0;pointerEvents=1;fontSize=18;" vertex="1" parent="484">
                    <mxGeometry width="115" height="40" as="geometry">
                        <mxRectangle width="115" height="40" as="alternateBounds"/>
                    </mxGeometry>
                </mxCell>
                <mxCell id="486" value="local" style="shape=partialRectangle;html=1;whiteSpace=wrap;connectable=0;overflow=hidden;fillColor=none;top=0;left=0;bottom=0;right=0;pointerEvents=1;fontSize=18;" vertex="1" parent="484">
                    <mxGeometry x="115" width="115" height="40" as="geometry">
                        <mxRectangle width="115" height="40" as="alternateBounds"/>
                    </mxGeometry>
                </mxCell>
                <mxCell id="487" value="Workload B VPC &lt;br&gt;(10.4.0.0/16, 10.5.0.108/28)" style="points=[[0,0],[0.25,0],[0.5,0],[0.75,0],[1,0],[1,0.25],[1,0.5],[1,0.75],[1,1],[0.75,1],[0.5,1],[0.25,1],[0,1],[0,0.75],[0,0.5],[0,0.25]];outlineConnect=0;gradientColor=none;html=1;whiteSpace=wrap;fontSize=20;fontStyle=1;container=1;pointerEvents=0;collapsible=0;recursiveResize=0;shape=mxgraph.aws4.group;grIcon=mxgraph.aws4.group_vpc;strokeColor=#248814;fillColor=none;verticalAlign=top;align=left;spacingLeft=30;fontColor=#009900;dashed=0;strokeWidth=2;" vertex="1" parent="1">
                    <mxGeometry x="1545" y="2170" width="320" height="620" as="geometry"/>
                </mxCell>
                <mxCell id="488" value="Private subnet&amp;nbsp;(10.4.0.0/24)" style="points=[[0,0],[0.25,0],[0.5,0],[0.75,0],[1,0],[1,0.25],[1,0.5],[1,0.75],[1,1],[0.75,1],[0.5,1],[0.25,1],[0,1],[0,0.75],[0,0.5],[0,0.25]];outlineConnect=0;gradientColor=none;html=1;whiteSpace=wrap;fontSize=16;fontStyle=0;container=1;pointerEvents=0;collapsible=0;recursiveResize=0;shape=mxgraph.aws4.group;grIcon=mxgraph.aws4.group_security_group;grStroke=0;strokeColor=#147EBA;fillColor=#E6F2F8;verticalAlign=top;align=left;spacingLeft=30;fontColor=#147EBA;dashed=0;" vertex="1" parent="487">
                    <mxGeometry x="41" y="380" width="240" height="200" as="geometry"/>
                </mxCell>
                <mxCell id="500" value="EC2" style="sketch=0;points=[[0,0,0],[0.25,0,0],[0.5,0,0],[0.75,0,0],[1,0,0],[0,1,0],[0.25,1,0],[0.5,1,0],[0.75,1,0],[1,1,0],[0,0.25,0],[0,0.5,0],[0,0.75,0],[1,0.25,0],[1,0.5,0],[1,0.75,0]];outlineConnect=0;fontColor=#232F3E;gradientColor=#F78E04;gradientDirection=north;fillColor=#D05C17;strokeColor=#ffffff;dashed=0;verticalLabelPosition=bottom;verticalAlign=top;align=center;html=1;fontSize=16;fontStyle=1;aspect=fixed;shape=mxgraph.aws4.resourceIcon;resIcon=mxgraph.aws4.ec2;strokeWidth=3;" vertex="1" parent="488">
                    <mxGeometry x="80" y="72" width="78" height="78" as="geometry"/>
                </mxCell>
                <mxCell id="502" style="edgeStyle=orthogonalEdgeStyle;html=1;strokeColor=#9933FF;strokeWidth=4;fontSize=16;fontColor=#000000;startArrow=none;startFill=0;endArrow=classic;endFill=1;sourcePerimeterSpacing=35;targetPerimeterSpacing=15;" edge="1" parent="1" source="442" target="499">
                    <mxGeometry relative="1" as="geometry"/>
                </mxCell>
                <mxCell id="503" style="edgeStyle=orthogonalEdgeStyle;html=1;strokeColor=#9933FF;strokeWidth=4;fontSize=16;fontColor=#000000;startArrow=oval;startFill=1;endArrow=classic;endFill=1;sourcePerimeterSpacing=0;targetPerimeterSpacing=15;startSize=20;" edge="1" parent="1" source="154" target="473">
                    <mxGeometry relative="1" as="geometry">
                        <Array as="points">
                            <mxPoint x="1716" y="2070"/>
                        </Array>
                    </mxGeometry>
                </mxCell>
                <mxCell id="507" style="edgeStyle=orthogonalEdgeStyle;html=1;strokeColor=#9933FF;strokeWidth=4;fontSize=16;fontColor=#000000;startArrow=none;startFill=0;endArrow=classic;endFill=1;sourcePerimeterSpacing=35;targetPerimeterSpacing=15;" edge="1" parent="1" source="473" target="500">
                    <mxGeometry relative="1" as="geometry"/>
                </mxCell>
                <mxCell id="510" style="edgeStyle=orthogonalEdgeStyle;html=1;strokeColor=#9933FF;strokeWidth=4;fontSize=16;fontColor=#000000;startArrow=none;startFill=0;endArrow=classic;endFill=1;sourcePerimeterSpacing=35;targetPerimeterSpacing=15;endSize=10;startSize=10;" edge="1" parent="1" source="509" target="13">
                    <mxGeometry relative="1" as="geometry"/>
                </mxCell>
                <mxCell id="512" style="edgeStyle=orthogonalEdgeStyle;html=1;strokeColor=#9933FF;strokeWidth=4;fontSize=16;fontColor=#000000;startArrow=none;startFill=0;endArrow=none;endFill=0;sourcePerimeterSpacing=15;targetPerimeterSpacing=5;" edge="1" parent="1" source="304">
                    <mxGeometry relative="1" as="geometry">
                        <mxPoint x="1140" y="1380" as="targetPoint"/>
                        <Array as="points">
                            <mxPoint x="1901" y="1384"/>
                            <mxPoint x="1140" y="1384"/>
                        </Array>
                    </mxGeometry>
                </mxCell>
                <mxCell id="501" style="edgeStyle=orthogonalEdgeStyle;html=1;strokeColor=#9933FF;strokeWidth=4;fontSize=16;fontColor=#000000;startArrow=oval;startFill=1;endArrow=classic;endFill=1;sourcePerimeterSpacing=0;targetPerimeterSpacing=15;startSize=20;endSize=10;" edge="1" parent="1" source="154" target="442">
                    <mxGeometry relative="1" as="geometry">
                        <Array as="points">
                            <mxPoint x="971" y="2260"/>
                            <mxPoint x="971" y="2260"/>
                        </Array>
                    </mxGeometry>
                </mxCell>
            </root>
        </mxGraphModel>
    </diagram>
</mxfile>